<svg width="840" height="580" viewBox="0 0 840 580" fill="none" xmlns="http://www.w3.org/2000/svg">
<rect width="839" height="579" fill="white"/>
<rect opacity="0.7" y="348" width="209" height="116" fill="#FF492C"/>
<rect opacity="0.4" y="116" width="209" height="116" fill="#FF9500"/>
<rect opacity="0.5" y="232" width="209" height="116" fill="#FF9500"/>
<rect y="464" width="209" height="116" fill="#9ECCFF"/>
<rect opacity="0.86" x="209" y="348" width="211" height="116" fill="#E01E00"/>
<rect opacity="0.83" x="209" y="116" width="211" height="116" fill="#FF492C"/>
<rect opacity="0.83" x="209" y="232" width="211" height="116" fill="#FF492C"/>
<rect opacity="0.3" x="209" y="464" width="211" height="116" fill="#9ECCFF"/>
<rect x="420" y="348" width="211" height="116" fill="#D61D00"/>
<rect opacity="0.86" x="420" y="116" width="211" height="116" fill="#E01E00"/>
<rect opacity="0.9" x="420" y="232" width="211" height="116" fill="#FF492C"/>
<rect opacity="0.15" x="420" y="464" width="211" height="116" fill="#9ECCFF"/>
<rect opacity="0.8" x="631" y="348" width="209" height="116" fill="#E01E00"/>
<rect x="631" y="116" width="209" height="116" fill="#FF492C"/>
<rect opacity="0.9" x="631" y="232" width="209" height="116" fill="#FF492C"/>
<rect opacity="0.9" x="631" y="464" width="209" height="116" fill="#9ECCFF"/>
<path d="M80.6534 417.384C79.672 417.384 78.6694 417.235 77.6454 416.936C76.6427 416.616 75.7147 416.147 74.8614 415.528C74.008 414.888 73.3574 414.088 72.9094 413.128L76.2054 411.912C76.76 412.701 77.4107 413.277 78.1574 413.64C78.904 413.981 79.672 414.152 80.4614 414.152C81.72 414.152 82.744 413.779 83.5334 413.032C84.3227 412.264 84.7174 411.251 84.7174 409.992C84.7174 408.776 84.3334 407.773 83.5654 406.984C82.7974 406.195 81.7947 405.8 80.5574 405.8C79.832 405.8 79.1494 405.96 78.5094 406.28C77.8907 406.6 77.4107 406.984 77.0694 407.432L73.7094 406.696L74.9574 394.6H87.3414V397.96H78.1574L77.5174 404.04C78.0934 403.699 78.7334 403.432 79.4374 403.24C80.1627 403.027 80.92 402.92 81.7094 402.92C82.9894 402.92 84.1414 403.219 85.1654 403.816C86.1894 404.413 87 405.235 87.5974 406.28C88.1947 407.304 88.4934 408.488 88.4934 409.832C88.4934 411.325 88.152 412.637 87.4694 413.768C86.808 414.899 85.8907 415.784 84.7174 416.424C83.544 417.064 82.1894 417.384 80.6534 417.384ZM100.413 417.384C98.664 417.384 97.1067 416.893 95.7414 415.912C94.376 414.909 93.2987 413.544 92.5094 411.816C91.7414 410.067 91.3574 408.061 91.3574 405.8C91.3574 403.539 91.7414 401.544 92.5094 399.816C93.2987 398.067 94.3654 396.701 95.7094 395.72C97.0747 394.717 98.6427 394.216 100.413 394.216C102.184 394.216 103.752 394.717 105.117 395.72C106.483 396.701 107.549 398.067 108.317 399.816C109.107 401.544 109.501 403.539 109.501 405.8C109.501 408.061 109.107 410.067 108.317 411.816C107.549 413.544 106.483 414.909 105.117 415.912C103.773 416.893 102.205 417.384 100.413 417.384ZM100.445 414.024C101.491 414.024 102.419 413.672 103.229 412.968C104.061 412.264 104.701 411.293 105.149 410.056C105.619 408.819 105.853 407.4 105.853 405.8C105.853 404.2 105.619 402.781 105.149 401.544C104.701 400.285 104.061 399.304 103.229 398.6C102.419 397.896 101.48 397.544 100.413 397.544C99.3467 397.544 98.408 397.896 97.5974 398.6C96.7867 399.304 96.1467 400.275 95.6774 401.512C95.2294 402.749 95.0054 404.179 95.0054 405.8C95.0054 407.4 95.2294 408.819 95.6774 410.056C96.1467 411.293 96.7867 412.264 97.5974 412.968C98.4294 413.672 99.3787 414.024 100.445 414.024ZM114.01 417L129.914 394.6H133.626L117.626 417H114.01ZM130.202 417.512C129.2 417.512 128.314 417.277 127.546 416.808C126.778 416.339 126.17 415.688 125.722 414.856C125.296 414.024 125.082 413.085 125.082 412.04C125.082 410.973 125.296 410.035 125.722 409.224C126.149 408.413 126.746 407.773 127.514 407.304C128.304 406.835 129.2 406.6 130.202 406.6C131.205 406.6 132.09 406.835 132.858 407.304C133.626 407.773 134.224 408.413 134.65 409.224C135.098 410.035 135.322 410.973 135.322 412.04C135.322 413.085 135.098 414.024 134.65 414.856C134.224 415.688 133.626 416.339 132.858 416.808C132.09 417.277 131.205 417.512 130.202 417.512ZM130.202 414.984C130.906 414.984 131.482 414.707 131.93 414.152C132.378 413.597 132.602 412.893 132.602 412.04C132.602 411.208 132.378 410.515 131.93 409.96C131.482 409.384 130.906 409.096 130.202 409.096C129.498 409.096 128.912 409.384 128.442 409.96C127.994 410.515 127.77 411.208 127.77 412.04C127.77 412.893 127.994 413.597 128.442 414.152C128.912 414.707 129.498 414.984 130.202 414.984ZM117.53 405C116.549 405 115.664 404.765 114.874 404.296C114.106 403.827 113.509 403.176 113.082 402.344C112.656 401.512 112.442 400.573 112.442 399.528C112.442 398.461 112.656 397.523 113.082 396.712C113.509 395.901 114.106 395.261 114.874 394.792C115.664 394.323 116.56 394.088 117.562 394.088C118.565 394.088 119.45 394.323 120.218 394.792C120.986 395.261 121.584 395.901 122.01 396.712C122.437 397.523 122.65 398.461 122.65 399.528C122.65 400.573 122.437 401.512 122.01 402.344C121.584 403.176 120.976 403.827 120.186 404.296C119.418 404.765 118.533 405 117.53 405ZM117.53 402.472C118.256 402.472 118.842 402.195 119.29 401.64C119.738 401.085 119.962 400.381 119.962 399.528C119.962 398.696 119.738 398.003 119.29 397.448C118.842 396.893 118.256 396.616 117.53 396.616C116.826 396.616 116.25 396.893 115.802 397.448C115.354 398.003 115.13 398.696 115.13 399.528C115.13 400.381 115.354 401.085 115.802 401.64C116.25 402.195 116.826 402.472 117.53 402.472Z" fill="black"/>
<path d="M81.0789 185.384C79.8629 185.384 78.7535 185.203 77.7509 184.84C76.7482 184.477 75.9055 183.965 75.2229 183.304C74.5402 182.643 74.0495 181.896 73.7509 181.064L77.0789 179.816C77.2495 180.115 77.4842 180.445 77.7829 180.808C78.0815 181.171 78.4762 181.491 78.9669 181.768C79.4575 182.024 80.0869 182.152 80.8549 182.152C82.0709 182.152 83.0309 181.811 83.7349 181.128C84.4602 180.424 84.8229 179.539 84.8229 178.472C84.8229 177.704 84.6202 177.043 84.2149 176.488C83.8309 175.933 83.2229 175.507 82.3909 175.208C81.5802 174.909 80.5562 174.76 79.3189 174.76H78.2949V172.136H79.2229C80.5242 172.136 81.7295 172.285 82.8389 172.584C83.9695 172.883 84.9615 173.331 85.8149 173.928C86.6895 174.504 87.3615 175.208 87.8309 176.04C88.3215 176.872 88.5669 177.811 88.5669 178.856C88.5669 180.2 88.2149 181.363 87.5109 182.344C86.8282 183.325 85.9215 184.083 84.7909 184.616C83.6602 185.128 82.4229 185.384 81.0789 185.384ZM78.2949 174.184V171.688H79.3189C80.9615 171.688 82.2095 171.411 83.0629 170.856C83.9162 170.301 84.3429 169.523 84.3429 168.52C84.3429 167.944 84.1935 167.432 83.8949 166.984C83.6175 166.515 83.2122 166.141 82.6789 165.864C82.1455 165.587 81.5162 165.448 80.7909 165.448C80.3215 165.448 79.8629 165.523 79.4149 165.672C78.9669 165.821 78.5509 166.056 78.1669 166.376C77.7829 166.696 77.4629 167.112 77.2069 167.624L73.9749 166.44C74.2949 165.544 74.8069 164.787 75.5109 164.168C76.2149 163.528 77.0362 163.048 77.9749 162.728C78.9135 162.387 79.8949 162.216 80.9189 162.216C82.2842 162.216 83.5002 162.472 84.5669 162.984C85.6549 163.496 86.5082 164.211 87.1269 165.128C87.7669 166.024 88.0869 167.059 88.0869 168.232C88.0869 169.213 87.8415 170.077 87.3509 170.824C86.8815 171.571 86.2309 172.2 85.3989 172.712C84.5669 173.203 83.6175 173.576 82.5509 173.832C81.5055 174.067 80.3855 174.184 79.1909 174.184H78.2949ZM99.9639 185.384C98.2359 185.384 96.7532 185.128 95.5159 184.616C94.2785 184.083 93.3292 183.357 92.6679 182.44C92.0065 181.501 91.6759 180.413 91.6759 179.176C91.6759 177.853 92.0065 176.701 92.6679 175.72C93.3292 174.717 94.2785 173.939 95.5159 173.384C96.7532 172.808 98.2359 172.531 99.9639 172.552C101.692 172.531 103.175 172.808 104.412 173.384C105.649 173.939 106.599 174.717 107.26 175.72C107.943 176.701 108.284 177.853 108.284 179.176C108.284 180.413 107.943 181.501 107.26 182.44C106.599 183.357 105.649 184.083 104.412 184.616C103.175 185.128 101.692 185.384 99.9639 185.384ZM99.9639 182.248C101.287 182.248 102.375 181.917 103.228 181.256C104.081 180.595 104.508 179.752 104.508 178.728C104.508 177.64 104.081 176.755 103.228 176.072C102.375 175.389 101.287 175.048 99.9639 175.048C99.0892 175.048 98.3105 175.197 97.6279 175.496C96.9665 175.795 96.4332 176.232 96.0279 176.808C95.6439 177.363 95.4519 178.003 95.4519 178.728C95.4519 179.411 95.6439 180.019 96.0279 180.552C96.4332 181.085 96.9665 181.501 97.6279 181.8C98.3105 182.099 99.0892 182.248 99.9639 182.248ZM99.9639 174.216C98.4279 174.216 97.0945 173.971 95.9639 173.48C94.8332 172.968 93.9585 172.275 93.3399 171.4C92.7425 170.504 92.4439 169.469 92.4439 168.296C92.4439 167.101 92.7425 166.045 93.3399 165.128C93.9585 164.211 94.8332 163.496 95.9639 162.984C97.0945 162.472 98.4279 162.216 99.9639 162.216C101.5 162.216 102.833 162.472 103.964 162.984C105.095 163.496 105.969 164.211 106.588 165.128C107.207 166.045 107.516 167.101 107.516 168.296C107.516 169.469 107.207 170.504 106.588 171.4C105.969 172.275 105.095 172.968 103.964 173.48C102.833 173.971 101.5 174.216 99.9639 174.216ZM99.9639 171.944C101.095 171.944 102.023 171.645 102.748 171.048C103.495 170.429 103.868 169.651 103.868 168.712C103.868 167.688 103.495 166.856 102.748 166.216C102.023 165.576 101.095 165.256 99.9639 165.256C98.8332 165.256 97.9052 165.576 97.1799 166.216C96.4545 166.856 96.0919 167.688 96.0919 168.712C96.0919 169.651 96.4545 170.429 97.1799 171.048C97.9052 171.645 98.8332 171.944 99.9639 171.944ZM113.073 185L128.977 162.6H132.689L116.689 185H113.073ZM129.265 185.512C128.262 185.512 127.377 185.277 126.609 184.808C125.841 184.339 125.233 183.688 124.785 182.856C124.358 182.024 124.145 181.085 124.145 180.04C124.145 178.973 124.358 178.035 124.785 177.224C125.212 176.413 125.809 175.773 126.577 175.304C127.366 174.835 128.262 174.6 129.265 174.6C130.268 174.6 131.153 174.835 131.921 175.304C132.689 175.773 133.286 176.413 133.713 177.224C134.161 178.035 134.385 178.973 134.385 180.04C134.385 181.085 134.161 182.024 133.713 182.856C133.286 183.688 132.689 184.339 131.921 184.808C131.153 185.277 130.268 185.512 129.265 185.512ZM129.265 182.984C129.969 182.984 130.545 182.707 130.993 182.152C131.441 181.597 131.665 180.893 131.665 180.04C131.665 179.208 131.441 178.515 130.993 177.96C130.545 177.384 129.969 177.096 129.265 177.096C128.561 177.096 127.974 177.384 127.505 177.96C127.057 178.515 126.833 179.208 126.833 180.04C126.833 180.893 127.057 181.597 127.505 182.152C127.974 182.707 128.561 182.984 129.265 182.984ZM116.593 173C115.612 173 114.726 172.765 113.937 172.296C113.169 171.827 112.572 171.176 112.145 170.344C111.718 169.512 111.505 168.573 111.505 167.528C111.505 166.461 111.718 165.523 112.145 164.712C112.572 163.901 113.169 163.261 113.937 162.792C114.726 162.323 115.622 162.088 116.625 162.088C117.628 162.088 118.513 162.323 119.281 162.792C120.049 163.261 120.646 163.901 121.073 164.712C121.5 165.523 121.713 166.461 121.713 167.528C121.713 168.573 121.5 169.512 121.073 170.344C120.646 171.176 120.038 171.827 119.249 172.296C118.481 172.765 117.596 173 116.593 173ZM116.593 170.472C117.318 170.472 117.905 170.195 118.353 169.64C118.801 169.085 119.025 168.381 119.025 167.528C119.025 166.696 118.801 166.003 118.353 165.448C117.905 164.893 117.318 164.616 116.593 164.616C115.889 164.616 115.313 164.893 114.865 165.448C114.417 166.003 114.193 166.696 114.193 167.528C114.193 168.381 114.417 169.085 114.865 169.64C115.313 170.195 115.889 170.472 116.593 170.472Z" fill="black"/>
<path d="M81.7039 301.384C80.4879 301.384 79.3785 301.203 78.3759 300.84C77.3732 300.477 76.5305 299.965 75.8479 299.304C75.1652 298.643 74.6745 297.896 74.3759 297.064L77.7039 295.816C77.8745 296.115 78.1092 296.445 78.4079 296.808C78.7065 297.171 79.1012 297.491 79.5919 297.768C80.0825 298.024 80.7119 298.152 81.4799 298.152C82.6959 298.152 83.6559 297.811 84.3599 297.128C85.0852 296.424 85.4479 295.539 85.4479 294.472C85.4479 293.704 85.2452 293.043 84.8399 292.488C84.4559 291.933 83.8479 291.507 83.0159 291.208C82.2052 290.909 81.1812 290.76 79.9439 290.76H78.9199V288.136H79.8479C81.1492 288.136 82.3545 288.285 83.4639 288.584C84.5945 288.883 85.5865 289.331 86.4399 289.928C87.3145 290.504 87.9865 291.208 88.4559 292.04C88.9465 292.872 89.1919 293.811 89.1919 294.856C89.1919 296.2 88.8399 297.363 88.1359 298.344C87.4532 299.325 86.5465 300.083 85.4159 300.616C84.2852 301.128 83.0479 301.384 81.7039 301.384ZM78.9199 290.184V287.688H79.9439C81.5865 287.688 82.8345 287.411 83.6879 286.856C84.5412 286.301 84.9679 285.523 84.9679 284.52C84.9679 283.944 84.8185 283.432 84.5199 282.984C84.2425 282.515 83.8372 282.141 83.3039 281.864C82.7705 281.587 82.1412 281.448 81.4159 281.448C80.9465 281.448 80.4879 281.523 80.0399 281.672C79.5919 281.821 79.1759 282.056 78.7919 282.376C78.4079 282.696 78.0879 283.112 77.8319 283.624L74.5999 282.44C74.9199 281.544 75.4319 280.787 76.1359 280.168C76.8399 279.528 77.6612 279.048 78.5999 278.728C79.5385 278.387 80.5199 278.216 81.5439 278.216C82.9092 278.216 84.1252 278.472 85.1919 278.984C86.2799 279.496 87.1332 280.211 87.7519 281.128C88.3919 282.024 88.7119 283.059 88.7119 284.232C88.7119 285.213 88.4665 286.077 87.9759 286.824C87.5065 287.571 86.8559 288.2 86.0239 288.712C85.1919 289.203 84.2425 289.576 83.1759 289.832C82.1305 290.067 81.0105 290.184 79.8159 290.184H78.9199ZM99.6289 278.216C101.165 278.216 102.456 278.504 103.501 279.08C104.546 279.635 105.389 280.403 106.029 281.384C106.69 282.365 107.16 283.496 107.437 284.776C107.736 286.056 107.885 287.432 107.885 288.904C107.885 290.696 107.693 292.36 107.309 293.896C106.946 295.411 106.392 296.733 105.645 297.864C104.92 298.973 103.992 299.837 102.861 300.456C101.752 301.075 100.44 301.384 98.9249 301.384C97.7729 301.384 96.6422 301.213 95.5329 300.872C94.4235 300.531 93.4209 300.04 92.5249 299.4L94.4449 296.712C95.1062 297.181 95.8209 297.533 96.5889 297.768C97.3782 298.003 98.1035 298.12 98.7649 298.12C100.621 298.12 102.061 297.32 103.085 295.72C104.109 294.12 104.578 291.635 104.493 288.264L105.261 288.84C104.749 290.056 103.96 291.037 102.893 291.784C101.826 292.509 100.557 292.872 99.0849 292.872C97.6555 292.872 96.3862 292.552 95.2769 291.912C94.1889 291.251 93.3249 290.365 92.6849 289.256C92.0662 288.125 91.7569 286.856 91.7569 285.448C91.7569 284.04 92.0769 282.792 92.7169 281.704C93.3782 280.616 94.2955 279.763 95.4689 279.144C96.6635 278.525 98.0502 278.216 99.6289 278.216ZM99.5969 281.416C98.8075 281.416 98.0929 281.597 97.4529 281.96C96.8342 282.301 96.3435 282.792 95.9809 283.432C95.6395 284.051 95.4689 284.765 95.4689 285.576C95.4689 286.387 95.6395 287.112 95.9809 287.752C96.3435 288.392 96.8342 288.893 97.4529 289.256C98.0929 289.619 98.8075 289.8 99.5969 289.8C100.429 289.8 101.154 289.619 101.773 289.256C102.413 288.893 102.904 288.392 103.245 287.752C103.608 287.112 103.789 286.387 103.789 285.576C103.789 284.765 103.608 284.051 103.245 283.432C102.904 282.792 102.413 282.301 101.773 281.96C101.154 281.597 100.429 281.416 99.5969 281.416ZM112.448 301L128.352 278.6H132.064L116.064 301H112.448ZM128.64 301.512C127.637 301.512 126.752 301.277 125.984 300.808C125.216 300.339 124.608 299.688 124.16 298.856C123.733 298.024 123.52 297.085 123.52 296.04C123.52 294.973 123.733 294.035 124.16 293.224C124.587 292.413 125.184 291.773 125.952 291.304C126.741 290.835 127.637 290.6 128.64 290.6C129.643 290.6 130.528 290.835 131.296 291.304C132.064 291.773 132.661 292.413 133.088 293.224C133.536 294.035 133.76 294.973 133.76 296.04C133.76 297.085 133.536 298.024 133.088 298.856C132.661 299.688 132.064 300.339 131.296 300.808C130.528 301.277 129.643 301.512 128.64 301.512ZM128.64 298.984C129.344 298.984 129.92 298.707 130.368 298.152C130.816 297.597 131.04 296.893 131.04 296.04C131.04 295.208 130.816 294.515 130.368 293.96C129.92 293.384 129.344 293.096 128.64 293.096C127.936 293.096 127.349 293.384 126.88 293.96C126.432 294.515 126.208 295.208 126.208 296.04C126.208 296.893 126.432 297.597 126.88 298.152C127.349 298.707 127.936 298.984 128.64 298.984ZM115.968 289C114.987 289 114.101 288.765 113.312 288.296C112.544 287.827 111.947 287.176 111.52 286.344C111.093 285.512 110.88 284.573 110.88 283.528C110.88 282.461 111.093 281.523 111.52 280.712C111.947 279.901 112.544 279.261 113.312 278.792C114.101 278.323 114.997 278.088 116 278.088C117.003 278.088 117.888 278.323 118.656 278.792C119.424 279.261 120.021 279.901 120.448 280.712C120.875 281.523 121.088 282.461 121.088 283.528C121.088 284.573 120.875 285.512 120.448 286.344C120.021 287.176 119.413 287.827 118.624 288.296C117.856 288.765 116.971 289 115.968 289ZM115.968 286.472C116.693 286.472 117.28 286.195 117.728 285.64C118.176 285.085 118.4 284.381 118.4 283.528C118.4 282.696 118.176 282.003 117.728 281.448C117.28 280.893 116.693 280.616 115.968 280.616C115.264 280.616 114.688 280.893 114.24 281.448C113.792 282.003 113.568 282.696 113.568 283.528C113.568 284.381 113.792 285.085 114.24 285.64C114.688 286.195 115.264 286.472 115.968 286.472Z" fill="black"/>
<path d="M91.0014 534.384C89.2734 534.384 87.7907 534.128 86.5534 533.616C85.316 533.083 84.3667 532.357 83.7054 531.44C83.044 530.501 82.7134 529.413 82.7134 528.176C82.7134 526.853 83.044 525.701 83.7054 524.72C84.3667 523.717 85.316 522.939 86.5534 522.384C87.7907 521.808 89.2734 521.531 91.0014 521.552C92.7294 521.531 94.212 521.808 95.4494 522.384C96.6867 522.939 97.636 523.717 98.2974 524.72C98.98 525.701 99.3214 526.853 99.3214 528.176C99.3214 529.413 98.98 530.501 98.2974 531.44C97.636 532.357 96.6867 533.083 95.4494 533.616C94.212 534.128 92.7294 534.384 91.0014 534.384ZM91.0014 531.248C92.324 531.248 93.412 530.917 94.2654 530.256C95.1187 529.595 95.5454 528.752 95.5454 527.728C95.5454 526.64 95.1187 525.755 94.2654 525.072C93.412 524.389 92.324 524.048 91.0014 524.048C90.1267 524.048 89.348 524.197 88.6654 524.496C88.004 524.795 87.4707 525.232 87.0654 525.808C86.6814 526.363 86.4894 527.003 86.4894 527.728C86.4894 528.411 86.6814 529.019 87.0654 529.552C87.4707 530.085 88.004 530.501 88.6654 530.8C89.348 531.099 90.1267 531.248 91.0014 531.248ZM91.0014 523.216C89.4654 523.216 88.132 522.971 87.0014 522.48C85.8707 521.968 84.996 521.275 84.3774 520.4C83.78 519.504 83.4814 518.469 83.4814 517.296C83.4814 516.101 83.78 515.045 84.3774 514.128C84.996 513.211 85.8707 512.496 87.0014 511.984C88.132 511.472 89.4654 511.216 91.0014 511.216C92.5374 511.216 93.8707 511.472 95.0014 511.984C96.132 512.496 97.0067 513.211 97.6254 514.128C98.244 515.045 98.5534 516.101 98.5534 517.296C98.5534 518.469 98.244 519.504 97.6254 520.4C97.0067 521.275 96.132 521.968 95.0014 522.48C93.8707 522.971 92.5374 523.216 91.0014 523.216ZM91.0014 520.944C92.132 520.944 93.06 520.645 93.7854 520.048C94.532 519.429 94.9054 518.651 94.9054 517.712C94.9054 516.688 94.532 515.856 93.7854 515.216C93.06 514.576 92.132 514.256 91.0014 514.256C89.8707 514.256 88.9427 514.576 88.2174 515.216C87.492 515.856 87.1294 516.688 87.1294 517.712C87.1294 518.651 87.492 519.429 88.2174 520.048C88.9427 520.645 89.8707 520.944 91.0014 520.944ZM104.11 534L120.014 511.6H123.726L107.726 534H104.11ZM120.302 534.512C119.3 534.512 118.414 534.277 117.646 533.808C116.878 533.339 116.27 532.688 115.822 531.856C115.396 531.024 115.182 530.085 115.182 529.04C115.182 527.973 115.396 527.035 115.822 526.224C116.249 525.413 116.846 524.773 117.614 524.304C118.404 523.835 119.3 523.6 120.302 523.6C121.305 523.6 122.19 523.835 122.958 524.304C123.726 524.773 124.324 525.413 124.75 526.224C125.198 527.035 125.422 527.973 125.422 529.04C125.422 530.085 125.198 531.024 124.75 531.856C124.324 532.688 123.726 533.339 122.958 533.808C122.19 534.277 121.305 534.512 120.302 534.512ZM120.302 531.984C121.006 531.984 121.582 531.707 122.03 531.152C122.478 530.597 122.702 529.893 122.702 529.04C122.702 528.208 122.478 527.515 122.03 526.96C121.582 526.384 121.006 526.096 120.302 526.096C119.598 526.096 119.012 526.384 118.542 526.96C118.094 527.515 117.87 528.208 117.87 529.04C117.87 529.893 118.094 530.597 118.542 531.152C119.012 531.707 119.598 531.984 120.302 531.984ZM107.63 522C106.649 522 105.764 521.765 104.974 521.296C104.206 520.827 103.609 520.176 103.182 519.344C102.756 518.512 102.542 517.573 102.542 516.528C102.542 515.461 102.756 514.523 103.182 513.712C103.609 512.901 104.206 512.261 104.974 511.792C105.764 511.323 106.66 511.088 107.662 511.088C108.665 511.088 109.55 511.323 110.318 511.792C111.086 512.261 111.684 512.901 112.11 513.712C112.537 514.523 112.75 515.461 112.75 516.528C112.75 517.573 112.537 518.512 112.11 519.344C111.684 520.176 111.076 520.827 110.286 521.296C109.518 521.765 108.633 522 107.63 522ZM107.63 519.472C108.356 519.472 108.942 519.195 109.39 518.64C109.838 518.085 110.062 517.381 110.062 516.528C110.062 515.696 109.838 515.003 109.39 514.448C108.942 513.893 108.356 513.616 107.63 513.616C106.926 513.616 106.35 513.893 105.902 514.448C105.454 515.003 105.23 515.696 105.23 516.528C105.23 517.381 105.454 518.085 105.902 518.64C106.35 519.195 106.926 519.472 107.63 519.472Z" fill="black"/>
<path d="M295.017 417.384C293.503 417.384 292.212 417.107 291.145 416.552C290.1 415.976 289.257 415.208 288.617 414.248C287.977 413.267 287.508 412.136 287.209 410.856C286.911 409.555 286.761 408.168 286.761 406.696C286.761 404.904 286.943 403.251 287.305 401.736C287.689 400.221 288.255 398.899 289.001 397.768C289.748 396.637 290.676 395.763 291.785 395.144C292.916 394.525 294.228 394.216 295.721 394.216C296.873 394.216 298.004 394.397 299.113 394.76C300.244 395.101 301.247 395.581 302.121 396.2L300.201 398.888C299.54 398.419 298.815 398.067 298.025 397.832C297.257 397.597 296.543 397.48 295.881 397.48C294.025 397.48 292.585 398.28 291.561 399.88C290.559 401.48 290.1 403.965 290.185 407.336L289.417 406.76C289.908 405.544 290.687 404.573 291.753 403.848C292.82 403.101 294.089 402.728 295.561 402.728C296.991 402.728 298.26 403.059 299.369 403.72C300.479 404.36 301.343 405.245 301.961 406.376C302.58 407.485 302.889 408.755 302.889 410.184C302.889 411.571 302.559 412.808 301.897 413.896C301.257 414.984 300.34 415.837 299.145 416.456C297.972 417.075 296.596 417.384 295.017 417.384ZM295.049 414.216C295.839 414.216 296.543 414.035 297.161 413.672C297.801 413.309 298.303 412.819 298.665 412.2C299.028 411.56 299.209 410.835 299.209 410.024C299.209 409.213 299.028 408.488 298.665 407.848C298.303 407.208 297.801 406.717 297.161 406.376C296.543 406.013 295.839 405.832 295.049 405.832C294.239 405.832 293.513 406.013 292.873 406.376C292.255 406.717 291.764 407.208 291.401 407.848C291.039 408.488 290.857 409.213 290.857 410.024C290.857 410.835 291.039 411.56 291.401 412.2C291.764 412.819 292.255 413.309 292.873 413.672C293.513 414.035 294.239 414.216 295.049 414.216ZM310.684 417V396.584L311.036 394.6H314.268V417H310.684ZM305.82 401.16V397.8C306.311 397.821 306.866 397.683 307.484 397.384C308.124 397.064 308.754 396.648 309.372 396.136C309.991 395.624 310.546 395.101 311.036 394.568L313.34 396.968C312.594 397.757 311.815 398.483 311.004 399.144C310.194 399.805 309.351 400.317 308.476 400.68C307.623 401.043 306.738 401.203 305.82 401.16ZM320.839 417L336.743 394.6H340.455L324.455 417H320.839ZM337.031 417.512C336.028 417.512 335.143 417.277 334.375 416.808C333.607 416.339 332.999 415.688 332.551 414.856C332.124 414.024 331.911 413.085 331.911 412.04C331.911 410.973 332.124 410.035 332.551 409.224C332.977 408.413 333.575 407.773 334.343 407.304C335.132 406.835 336.028 406.6 337.031 406.6C338.033 406.6 338.919 406.835 339.687 407.304C340.455 407.773 341.052 408.413 341.479 409.224C341.927 410.035 342.151 410.973 342.151 412.04C342.151 413.085 341.927 414.024 341.479 414.856C341.052 415.688 340.455 416.339 339.687 416.808C338.919 417.277 338.033 417.512 337.031 417.512ZM337.031 414.984C337.735 414.984 338.311 414.707 338.759 414.152C339.207 413.597 339.431 412.893 339.431 412.04C339.431 411.208 339.207 410.515 338.759 409.96C338.311 409.384 337.735 409.096 337.031 409.096C336.327 409.096 335.74 409.384 335.271 409.96C334.823 410.515 334.599 411.208 334.599 412.04C334.599 412.893 334.823 413.597 335.271 414.152C335.74 414.707 336.327 414.984 337.031 414.984ZM324.359 405C323.377 405 322.492 404.765 321.703 404.296C320.935 403.827 320.337 403.176 319.911 402.344C319.484 401.512 319.271 400.573 319.271 399.528C319.271 398.461 319.484 397.523 319.911 396.712C320.337 395.901 320.935 395.261 321.703 394.792C322.492 394.323 323.388 394.088 324.391 394.088C325.393 394.088 326.279 394.323 327.047 394.792C327.815 395.261 328.412 395.901 328.839 396.712C329.265 397.523 329.479 398.461 329.479 399.528C329.479 400.573 329.265 401.512 328.839 402.344C328.412 403.176 327.804 403.827 327.015 404.296C326.247 404.765 325.361 405 324.359 405ZM324.359 402.472C325.084 402.472 325.671 402.195 326.119 401.64C326.567 401.085 326.791 400.381 326.791 399.528C326.791 398.696 326.567 398.003 326.119 397.448C325.671 396.893 325.084 396.616 324.359 396.616C323.655 396.616 323.079 396.893 322.631 397.448C322.183 398.003 321.959 398.696 321.959 399.528C321.959 400.381 322.183 401.085 322.631 401.64C323.079 402.195 323.655 402.472 324.359 402.472Z" fill="black"/>
<path d="M292.278 185.384C291.297 185.384 290.294 185.235 289.27 184.936C288.268 184.616 287.34 184.147 286.486 183.528C285.633 182.888 284.982 182.088 284.534 181.128L287.83 179.912C288.385 180.701 289.036 181.277 289.782 181.64C290.529 181.981 291.297 182.152 292.086 182.152C293.345 182.152 294.369 181.779 295.158 181.032C295.948 180.264 296.342 179.251 296.342 177.992C296.342 176.776 295.958 175.773 295.19 174.984C294.422 174.195 293.42 173.8 292.182 173.8C291.457 173.8 290.774 173.96 290.134 174.28C289.516 174.6 289.036 174.984 288.694 175.432L285.334 174.696L286.582 162.6H298.966V165.96H289.782L289.142 172.04C289.718 171.699 290.358 171.432 291.062 171.24C291.788 171.027 292.545 170.92 293.334 170.92C294.614 170.92 295.766 171.219 296.79 171.816C297.814 172.413 298.625 173.235 299.222 174.28C299.82 175.304 300.118 176.488 300.118 177.832C300.118 179.325 299.777 180.637 299.094 181.768C298.433 182.899 297.516 183.784 296.342 184.424C295.169 185.064 293.814 185.384 292.278 185.384ZM311.27 185.384C309.756 185.384 308.465 185.107 307.398 184.552C306.353 183.976 305.51 183.208 304.87 182.248C304.23 181.267 303.761 180.136 303.462 178.856C303.164 177.555 303.014 176.168 303.014 174.696C303.014 172.904 303.196 171.251 303.558 169.736C303.942 168.221 304.508 166.899 305.254 165.768C306.001 164.637 306.929 163.763 308.038 163.144C309.169 162.525 310.481 162.216 311.974 162.216C313.126 162.216 314.257 162.397 315.366 162.76C316.497 163.101 317.5 163.581 318.374 164.2L316.454 166.888C315.793 166.419 315.068 166.067 314.278 165.832C313.51 165.597 312.796 165.48 312.134 165.48C310.278 165.48 308.838 166.28 307.814 167.88C306.812 169.48 306.353 171.965 306.438 175.336L305.67 174.76C306.161 173.544 306.94 172.573 308.006 171.848C309.073 171.101 310.342 170.728 311.814 170.728C313.244 170.728 314.513 171.059 315.622 171.72C316.732 172.36 317.596 173.245 318.214 174.376C318.833 175.485 319.142 176.755 319.142 178.184C319.142 179.571 318.812 180.808 318.15 181.896C317.51 182.984 316.593 183.837 315.398 184.456C314.225 185.075 312.849 185.384 311.27 185.384ZM311.302 182.216C312.092 182.216 312.796 182.035 313.414 181.672C314.054 181.309 314.556 180.819 314.918 180.2C315.281 179.56 315.462 178.835 315.462 178.024C315.462 177.213 315.281 176.488 314.918 175.848C314.556 175.208 314.054 174.717 313.414 174.376C312.796 174.013 312.092 173.832 311.302 173.832C310.492 173.832 309.766 174.013 309.126 174.376C308.508 174.717 308.017 175.208 307.654 175.848C307.292 176.488 307.11 177.213 307.11 178.024C307.11 178.835 307.292 179.56 307.654 180.2C308.017 180.819 308.508 181.309 309.126 181.672C309.766 182.035 310.492 182.216 311.302 182.216ZM323.385 185L339.289 162.6H343.001L327.001 185H323.385ZM339.577 185.512C338.575 185.512 337.689 185.277 336.921 184.808C336.153 184.339 335.545 183.688 335.097 182.856C334.671 182.024 334.457 181.085 334.457 180.04C334.457 178.973 334.671 178.035 335.097 177.224C335.524 176.413 336.121 175.773 336.889 175.304C337.679 174.835 338.575 174.6 339.577 174.6C340.58 174.6 341.465 174.835 342.233 175.304C343.001 175.773 343.599 176.413 344.025 177.224C344.473 178.035 344.697 178.973 344.697 180.04C344.697 181.085 344.473 182.024 344.025 182.856C343.599 183.688 343.001 184.339 342.233 184.808C341.465 185.277 340.58 185.512 339.577 185.512ZM339.577 182.984C340.281 182.984 340.857 182.707 341.305 182.152C341.753 181.597 341.977 180.893 341.977 180.04C341.977 179.208 341.753 178.515 341.305 177.96C340.857 177.384 340.281 177.096 339.577 177.096C338.873 177.096 338.287 177.384 337.817 177.96C337.369 178.515 337.145 179.208 337.145 180.04C337.145 180.893 337.369 181.597 337.817 182.152C338.287 182.707 338.873 182.984 339.577 182.984ZM326.905 173C325.924 173 325.039 172.765 324.249 172.296C323.481 171.827 322.884 171.176 322.457 170.344C322.031 169.512 321.817 168.573 321.817 167.528C321.817 166.461 322.031 165.523 322.457 164.712C322.884 163.901 323.481 163.261 324.249 162.792C325.039 162.323 325.935 162.088 326.937 162.088C327.94 162.088 328.825 162.323 329.593 162.792C330.361 163.261 330.959 163.901 331.385 164.712C331.812 165.523 332.025 166.461 332.025 167.528C332.025 168.573 331.812 169.512 331.385 170.344C330.959 171.176 330.351 171.827 329.561 172.296C328.793 172.765 327.908 173 326.905 173ZM326.905 170.472C327.631 170.472 328.217 170.195 328.665 169.64C329.113 169.085 329.337 168.381 329.337 167.528C329.337 166.696 329.113 166.003 328.665 165.448C328.217 164.893 327.631 164.616 326.905 164.616C326.201 164.616 325.625 164.893 325.177 165.448C324.729 166.003 324.505 166.696 324.505 167.528C324.505 168.381 324.729 169.085 325.177 169.64C325.625 170.195 326.201 170.472 326.905 170.472Z" fill="black"/>
<path d="M292.278 302.384C291.297 302.384 290.294 302.235 289.27 301.936C288.268 301.616 287.34 301.147 286.486 300.528C285.633 299.888 284.982 299.088 284.534 298.128L287.83 296.912C288.385 297.701 289.036 298.277 289.782 298.64C290.529 298.981 291.297 299.152 292.086 299.152C293.345 299.152 294.369 298.779 295.158 298.032C295.948 297.264 296.342 296.251 296.342 294.992C296.342 293.776 295.958 292.773 295.19 291.984C294.422 291.195 293.42 290.8 292.182 290.8C291.457 290.8 290.774 290.96 290.134 291.28C289.516 291.6 289.036 291.984 288.694 292.432L285.334 291.696L286.582 279.6H298.966V282.96H289.782L289.142 289.04C289.718 288.699 290.358 288.432 291.062 288.24C291.788 288.027 292.545 287.92 293.334 287.92C294.614 287.92 295.766 288.219 296.79 288.816C297.814 289.413 298.625 290.235 299.222 291.28C299.82 292.304 300.118 293.488 300.118 294.832C300.118 296.325 299.777 297.637 299.094 298.768C298.433 299.899 297.516 300.784 296.342 301.424C295.169 302.064 293.814 302.384 292.278 302.384ZM311.27 302.384C309.756 302.384 308.465 302.107 307.398 301.552C306.353 300.976 305.51 300.208 304.87 299.248C304.23 298.267 303.761 297.136 303.462 295.856C303.164 294.555 303.014 293.168 303.014 291.696C303.014 289.904 303.196 288.251 303.558 286.736C303.942 285.221 304.508 283.899 305.254 282.768C306.001 281.637 306.929 280.763 308.038 280.144C309.169 279.525 310.481 279.216 311.974 279.216C313.126 279.216 314.257 279.397 315.366 279.76C316.497 280.101 317.5 280.581 318.374 281.2L316.454 283.888C315.793 283.419 315.068 283.067 314.278 282.832C313.51 282.597 312.796 282.48 312.134 282.48C310.278 282.48 308.838 283.28 307.814 284.88C306.812 286.48 306.353 288.965 306.438 292.336L305.67 291.76C306.161 290.544 306.94 289.573 308.006 288.848C309.073 288.101 310.342 287.728 311.814 287.728C313.244 287.728 314.513 288.059 315.622 288.72C316.732 289.36 317.596 290.245 318.214 291.376C318.833 292.485 319.142 293.755 319.142 295.184C319.142 296.571 318.812 297.808 318.15 298.896C317.51 299.984 316.593 300.837 315.398 301.456C314.225 302.075 312.849 302.384 311.27 302.384ZM311.302 299.216C312.092 299.216 312.796 299.035 313.414 298.672C314.054 298.309 314.556 297.819 314.918 297.2C315.281 296.56 315.462 295.835 315.462 295.024C315.462 294.213 315.281 293.488 314.918 292.848C314.556 292.208 314.054 291.717 313.414 291.376C312.796 291.013 312.092 290.832 311.302 290.832C310.492 290.832 309.766 291.013 309.126 291.376C308.508 291.717 308.017 292.208 307.654 292.848C307.292 293.488 307.11 294.213 307.11 295.024C307.11 295.835 307.292 296.56 307.654 297.2C308.017 297.819 308.508 298.309 309.126 298.672C309.766 299.035 310.492 299.216 311.302 299.216ZM323.385 302L339.289 279.6H343.001L327.001 302H323.385ZM339.577 302.512C338.575 302.512 337.689 302.277 336.921 301.808C336.153 301.339 335.545 300.688 335.097 299.856C334.671 299.024 334.457 298.085 334.457 297.04C334.457 295.973 334.671 295.035 335.097 294.224C335.524 293.413 336.121 292.773 336.889 292.304C337.679 291.835 338.575 291.6 339.577 291.6C340.58 291.6 341.465 291.835 342.233 292.304C343.001 292.773 343.599 293.413 344.025 294.224C344.473 295.035 344.697 295.973 344.697 297.04C344.697 298.085 344.473 299.024 344.025 299.856C343.599 300.688 343.001 301.339 342.233 301.808C341.465 302.277 340.58 302.512 339.577 302.512ZM339.577 299.984C340.281 299.984 340.857 299.707 341.305 299.152C341.753 298.597 341.977 297.893 341.977 297.04C341.977 296.208 341.753 295.515 341.305 294.96C340.857 294.384 340.281 294.096 339.577 294.096C338.873 294.096 338.287 294.384 337.817 294.96C337.369 295.515 337.145 296.208 337.145 297.04C337.145 297.893 337.369 298.597 337.817 299.152C338.287 299.707 338.873 299.984 339.577 299.984ZM326.905 290C325.924 290 325.039 289.765 324.249 289.296C323.481 288.827 322.884 288.176 322.457 287.344C322.031 286.512 321.817 285.573 321.817 284.528C321.817 283.461 322.031 282.523 322.457 281.712C322.884 280.901 323.481 280.261 324.249 279.792C325.039 279.323 325.935 279.088 326.937 279.088C327.94 279.088 328.825 279.323 329.593 279.792C330.361 280.261 330.959 280.901 331.385 281.712C331.812 282.523 332.025 283.461 332.025 284.528C332.025 285.573 331.812 286.512 331.385 287.344C330.959 288.176 330.351 288.827 329.561 289.296C328.793 289.765 327.908 290 326.905 290ZM326.905 287.472C327.631 287.472 328.217 287.195 328.665 286.64C329.113 286.085 329.337 285.381 329.337 284.528C329.337 283.696 329.113 283.003 328.665 282.448C328.217 281.893 327.631 281.616 326.905 281.616C326.201 281.616 325.625 281.893 325.177 282.448C324.729 283.003 324.505 283.696 324.505 284.528C324.505 285.381 324.729 286.085 325.177 286.64C325.625 287.195 326.201 287.472 326.905 287.472Z" fill="black"/>
<path d="M294.109 534V531.152C294.109 530.491 294.28 529.808 294.621 529.104C294.963 528.379 295.443 527.653 296.061 526.928C296.701 526.203 297.448 525.52 298.301 524.88L302.205 522.064C302.696 521.723 303.144 521.328 303.549 520.88C303.976 520.432 304.317 519.963 304.573 519.472C304.829 518.96 304.957 518.459 304.957 517.968C304.957 517.349 304.797 516.784 304.477 516.272C304.179 515.76 303.741 515.355 303.165 515.056C302.611 514.757 301.928 514.608 301.117 514.608C300.392 514.608 299.741 514.757 299.165 515.056C298.611 515.333 298.152 515.707 297.789 516.176C297.427 516.645 297.171 517.157 297.021 517.712L293.213 517.008C293.427 515.984 293.875 515.035 294.557 514.16C295.261 513.264 296.157 512.549 297.245 512.016C298.355 511.483 299.613 511.216 301.021 511.216C302.6 511.216 303.965 511.504 305.117 512.08C306.291 512.656 307.187 513.456 307.805 514.48C308.445 515.483 308.765 516.635 308.765 517.936C308.765 519.259 308.403 520.453 307.677 521.52C306.973 522.565 305.981 523.568 304.701 524.528L301.117 527.184C300.413 527.696 299.837 528.251 299.389 528.848C298.941 529.424 298.632 530.043 298.461 530.704H309.053V534H294.109ZM313.938 534L329.842 511.6H333.554L317.554 534H313.938ZM330.13 534.512C329.128 534.512 328.242 534.277 327.474 533.808C326.706 533.339 326.098 532.688 325.65 531.856C325.224 531.024 325.01 530.085 325.01 529.04C325.01 527.973 325.224 527.035 325.65 526.224C326.077 525.413 326.674 524.773 327.442 524.304C328.232 523.835 329.128 523.6 330.13 523.6C331.133 523.6 332.018 523.835 332.786 524.304C333.554 524.773 334.152 525.413 334.578 526.224C335.026 527.035 335.25 527.973 335.25 529.04C335.25 530.085 335.026 531.024 334.578 531.856C334.152 532.688 333.554 533.339 332.786 533.808C332.018 534.277 331.133 534.512 330.13 534.512ZM330.13 531.984C330.834 531.984 331.41 531.707 331.858 531.152C332.306 530.597 332.53 529.893 332.53 529.04C332.53 528.208 332.306 527.515 331.858 526.96C331.41 526.384 330.834 526.096 330.13 526.096C329.426 526.096 328.84 526.384 328.37 526.96C327.922 527.515 327.698 528.208 327.698 529.04C327.698 529.893 327.922 530.597 328.37 531.152C328.84 531.707 329.426 531.984 330.13 531.984ZM317.458 522C316.477 522 315.592 521.765 314.802 521.296C314.034 520.827 313.437 520.176 313.01 519.344C312.584 518.512 312.37 517.573 312.37 516.528C312.37 515.461 312.584 514.523 313.01 513.712C313.437 512.901 314.034 512.261 314.802 511.792C315.592 511.323 316.488 511.088 317.49 511.088C318.493 511.088 319.378 511.323 320.146 511.792C320.914 512.261 321.512 512.901 321.938 513.712C322.365 514.523 322.578 515.461 322.578 516.528C322.578 517.573 322.365 518.512 321.938 519.344C321.512 520.176 320.904 520.827 320.114 521.296C319.346 521.765 318.461 522 317.458 522ZM317.458 519.472C318.184 519.472 318.77 519.195 319.218 518.64C319.666 518.085 319.89 517.381 319.89 516.528C319.89 515.696 319.666 515.003 319.218 514.448C318.77 513.893 318.184 513.616 317.458 513.616C316.754 513.616 316.178 513.893 315.73 514.448C315.282 515.003 315.058 515.696 315.058 516.528C315.058 517.381 315.282 518.085 315.73 518.64C316.178 519.195 316.754 519.472 317.458 519.472Z" fill="black"/>
<path d="M498.314 417L508.234 397.448H512.042L502.41 417H498.314ZM496.618 397.992V394.6H512.042V397.448L508.554 397.992H496.618ZM515.025 417V414.152C515.025 413.491 515.196 412.808 515.537 412.104C515.878 411.379 516.358 410.653 516.977 409.928C517.617 409.203 518.364 408.52 519.217 407.88L523.121 405.064C523.612 404.723 524.06 404.328 524.465 403.88C524.892 403.432 525.233 402.963 525.489 402.472C525.745 401.96 525.873 401.459 525.873 400.968C525.873 400.349 525.713 399.784 525.393 399.272C525.094 398.76 524.657 398.355 524.081 398.056C523.526 397.757 522.844 397.608 522.033 397.608C521.308 397.608 520.657 397.757 520.081 398.056C519.526 398.333 519.068 398.707 518.705 399.176C518.342 399.645 518.086 400.157 517.937 400.712L514.129 400.008C514.342 398.984 514.79 398.035 515.473 397.16C516.177 396.264 517.073 395.549 518.161 395.016C519.27 394.483 520.529 394.216 521.937 394.216C523.516 394.216 524.881 394.504 526.033 395.08C527.206 395.656 528.102 396.456 528.721 397.48C529.361 398.483 529.681 399.635 529.681 400.936C529.681 402.259 529.318 403.453 528.593 404.52C527.889 405.565 526.897 406.568 525.617 407.528L522.033 410.184C521.329 410.696 520.753 411.251 520.305 411.848C519.857 412.424 519.548 413.043 519.377 413.704H529.969V417H515.025ZM534.854 417L550.758 394.6H554.47L538.47 417H534.854ZM551.046 417.512C550.043 417.512 549.158 417.277 548.39 416.808C547.622 416.339 547.014 415.688 546.566 414.856C546.139 414.024 545.926 413.085 545.926 412.04C545.926 410.973 546.139 410.035 546.566 409.224C546.993 408.413 547.59 407.773 548.358 407.304C549.147 406.835 550.043 406.6 551.046 406.6C552.049 406.6 552.934 406.835 553.702 407.304C554.47 407.773 555.067 408.413 555.494 409.224C555.942 410.035 556.166 410.973 556.166 412.04C556.166 413.085 555.942 414.024 555.494 414.856C555.067 415.688 554.47 416.339 553.702 416.808C552.934 417.277 552.049 417.512 551.046 417.512ZM551.046 414.984C551.75 414.984 552.326 414.707 552.774 414.152C553.222 413.597 553.446 412.893 553.446 412.04C553.446 411.208 553.222 410.515 552.774 409.96C552.326 409.384 551.75 409.096 551.046 409.096C550.342 409.096 549.755 409.384 549.286 409.96C548.838 410.515 548.614 411.208 548.614 412.04C548.614 412.893 548.838 413.597 549.286 414.152C549.755 414.707 550.342 414.984 551.046 414.984ZM538.374 405C537.393 405 536.507 404.765 535.718 404.296C534.95 403.827 534.353 403.176 533.926 402.344C533.499 401.512 533.286 400.573 533.286 399.528C533.286 398.461 533.499 397.523 533.926 396.712C534.353 395.901 534.95 395.261 535.718 394.792C536.507 394.323 537.403 394.088 538.406 394.088C539.409 394.088 540.294 394.323 541.062 394.792C541.83 395.261 542.427 395.901 542.854 396.712C543.281 397.523 543.494 398.461 543.494 399.528C543.494 400.573 543.281 401.512 542.854 402.344C542.427 403.176 541.819 403.827 541.03 404.296C540.262 404.765 539.377 405 538.374 405ZM538.374 402.472C539.099 402.472 539.686 402.195 540.134 401.64C540.582 401.085 540.806 400.381 540.806 399.528C540.806 398.696 540.582 398.003 540.134 397.448C539.686 396.893 539.099 396.616 538.374 396.616C537.67 396.616 537.094 396.893 536.646 397.448C536.198 398.003 535.974 398.696 535.974 399.528C535.974 400.381 536.198 401.085 536.646 401.64C537.094 402.195 537.67 402.472 538.374 402.472Z" fill="black"/>
<path d="M507.017 185.384C505.503 185.384 504.212 185.107 503.145 184.552C502.1 183.976 501.257 183.208 500.617 182.248C499.977 181.267 499.508 180.136 499.209 178.856C498.911 177.555 498.761 176.168 498.761 174.696C498.761 172.904 498.943 171.251 499.305 169.736C499.689 168.221 500.255 166.899 501.001 165.768C501.748 164.637 502.676 163.763 503.785 163.144C504.916 162.525 506.228 162.216 507.721 162.216C508.873 162.216 510.004 162.397 511.113 162.76C512.244 163.101 513.247 163.581 514.121 164.2L512.201 166.888C511.54 166.419 510.815 166.067 510.025 165.832C509.257 165.597 508.543 165.48 507.881 165.48C506.025 165.48 504.585 166.28 503.561 167.88C502.559 169.48 502.1 171.965 502.185 175.336L501.417 174.76C501.908 173.544 502.687 172.573 503.753 171.848C504.82 171.101 506.089 170.728 507.561 170.728C508.991 170.728 510.26 171.059 511.369 171.72C512.479 172.36 513.343 173.245 513.961 174.376C514.58 175.485 514.889 176.755 514.889 178.184C514.889 179.571 514.559 180.808 513.897 181.896C513.257 182.984 512.34 183.837 511.145 184.456C509.972 185.075 508.596 185.384 507.017 185.384ZM507.049 182.216C507.839 182.216 508.543 182.035 509.161 181.672C509.801 181.309 510.303 180.819 510.665 180.2C511.028 179.56 511.209 178.835 511.209 178.024C511.209 177.213 511.028 176.488 510.665 175.848C510.303 175.208 509.801 174.717 509.161 174.376C508.543 174.013 507.839 173.832 507.049 173.832C506.239 173.832 505.513 174.013 504.873 174.376C504.255 174.717 503.764 175.208 503.401 175.848C503.039 176.488 502.857 177.213 502.857 178.024C502.857 178.835 503.039 179.56 503.401 180.2C503.764 180.819 504.255 181.309 504.873 181.672C505.513 182.035 506.239 182.216 507.049 182.216ZM522.684 185V164.584L523.036 162.6H526.268V185H522.684ZM517.82 169.16V165.8C518.311 165.821 518.866 165.683 519.484 165.384C520.124 165.064 520.754 164.648 521.372 164.136C521.991 163.624 522.546 163.101 523.036 162.568L525.34 164.968C524.594 165.757 523.815 166.483 523.004 167.144C522.194 167.805 521.351 168.317 520.476 168.68C519.623 169.043 518.738 169.203 517.82 169.16ZM532.839 185L548.743 162.6H552.455L536.455 185H532.839ZM549.031 185.512C548.028 185.512 547.143 185.277 546.375 184.808C545.607 184.339 544.999 183.688 544.551 182.856C544.124 182.024 543.911 181.085 543.911 180.04C543.911 178.973 544.124 178.035 544.551 177.224C544.977 176.413 545.575 175.773 546.343 175.304C547.132 174.835 548.028 174.6 549.031 174.6C550.033 174.6 550.919 174.835 551.687 175.304C552.455 175.773 553.052 176.413 553.479 177.224C553.927 178.035 554.151 178.973 554.151 180.04C554.151 181.085 553.927 182.024 553.479 182.856C553.052 183.688 552.455 184.339 551.687 184.808C550.919 185.277 550.033 185.512 549.031 185.512ZM549.031 182.984C549.735 182.984 550.311 182.707 550.759 182.152C551.207 181.597 551.431 180.893 551.431 180.04C551.431 179.208 551.207 178.515 550.759 177.96C550.311 177.384 549.735 177.096 549.031 177.096C548.327 177.096 547.74 177.384 547.271 177.96C546.823 178.515 546.599 179.208 546.599 180.04C546.599 180.893 546.823 181.597 547.271 182.152C547.74 182.707 548.327 182.984 549.031 182.984ZM536.359 173C535.377 173 534.492 172.765 533.703 172.296C532.935 171.827 532.337 171.176 531.911 170.344C531.484 169.512 531.271 168.573 531.271 167.528C531.271 166.461 531.484 165.523 531.911 164.712C532.337 163.901 532.935 163.261 533.703 162.792C534.492 162.323 535.388 162.088 536.391 162.088C537.393 162.088 538.279 162.323 539.047 162.792C539.815 163.261 540.412 163.901 540.839 164.712C541.265 165.523 541.479 166.461 541.479 167.528C541.479 168.573 541.265 169.512 540.839 170.344C540.412 171.176 539.804 171.827 539.015 172.296C538.247 172.765 537.361 173 536.359 173ZM536.359 170.472C537.084 170.472 537.671 170.195 538.119 169.64C538.567 169.085 538.791 168.381 538.791 167.528C538.791 166.696 538.567 166.003 538.119 165.448C537.671 164.893 537.084 164.616 536.359 164.616C535.655 164.616 535.079 164.893 534.631 165.448C534.183 166.003 533.959 166.696 533.959 167.528C533.959 168.381 534.183 169.085 534.631 169.64C535.079 170.195 535.655 170.472 536.359 170.472Z" fill="black"/>
<path d="M504.7 302.384C503.719 302.384 502.716 302.235 501.692 301.936C500.69 301.616 499.762 301.147 498.908 300.528C498.055 299.888 497.404 299.088 496.956 298.128L500.252 296.912C500.807 297.701 501.458 298.277 502.204 298.64C502.951 298.981 503.719 299.152 504.508 299.152C505.767 299.152 506.791 298.779 507.58 298.032C508.37 297.264 508.764 296.251 508.764 294.992C508.764 293.776 508.38 292.773 507.612 291.984C506.844 291.195 505.842 290.8 504.604 290.8C503.879 290.8 503.196 290.96 502.556 291.28C501.938 291.6 501.458 291.984 501.116 292.432L497.756 291.696L499.004 279.6H511.388V282.96H502.204L501.564 289.04C502.14 288.699 502.78 288.432 503.484 288.24C504.21 288.027 504.967 287.92 505.756 287.92C507.036 287.92 508.188 288.219 509.212 288.816C510.236 289.413 511.047 290.235 511.644 291.28C512.242 292.304 512.54 293.488 512.54 294.832C512.54 296.325 512.199 297.637 511.516 298.768C510.855 299.899 509.938 300.784 508.764 301.424C507.591 302.064 506.236 302.384 504.7 302.384ZM517.004 302L526.924 282.448H530.732L521.1 302H517.004ZM515.308 282.992V279.6H530.732V282.448L527.244 282.992H515.308ZM534.964 302L550.868 279.6H554.58L538.58 302H534.964ZM551.156 302.512C550.153 302.512 549.268 302.277 548.5 301.808C547.732 301.339 547.124 300.688 546.676 299.856C546.249 299.024 546.036 298.085 546.036 297.04C546.036 295.973 546.249 295.035 546.676 294.224C547.102 293.413 547.7 292.773 548.468 292.304C549.257 291.835 550.153 291.6 551.156 291.6C552.158 291.6 553.044 291.835 553.812 292.304C554.58 292.773 555.177 293.413 555.604 294.224C556.052 295.035 556.276 295.973 556.276 297.04C556.276 298.085 556.052 299.024 555.604 299.856C555.177 300.688 554.58 301.339 553.812 301.808C553.044 302.277 552.158 302.512 551.156 302.512ZM551.156 299.984C551.86 299.984 552.436 299.707 552.884 299.152C553.332 298.597 553.556 297.893 553.556 297.04C553.556 296.208 553.332 295.515 552.884 294.96C552.436 294.384 551.86 294.096 551.156 294.096C550.452 294.096 549.865 294.384 549.396 294.96C548.948 295.515 548.724 296.208 548.724 297.04C548.724 297.893 548.948 298.597 549.396 299.152C549.865 299.707 550.452 299.984 551.156 299.984ZM538.484 290C537.502 290 536.617 289.765 535.828 289.296C535.06 288.827 534.462 288.176 534.036 287.344C533.609 286.512 533.396 285.573 533.396 284.528C533.396 283.461 533.609 282.523 534.036 281.712C534.462 280.901 535.06 280.261 535.828 279.792C536.617 279.323 537.513 279.088 538.516 279.088C539.518 279.088 540.404 279.323 541.172 279.792C541.94 280.261 542.537 280.901 542.964 281.712C543.39 282.523 543.604 283.461 543.604 284.528C543.604 285.573 543.39 286.512 542.964 287.344C542.537 288.176 541.929 288.827 541.14 289.296C540.372 289.765 539.486 290 538.484 290ZM538.484 287.472C539.209 287.472 539.796 287.195 540.244 286.64C540.692 286.085 540.916 285.381 540.916 284.528C540.916 283.696 540.692 283.003 540.244 282.448C539.796 281.893 539.209 281.616 538.484 281.616C537.78 281.616 537.204 281.893 536.756 282.448C536.308 283.003 536.084 283.696 536.084 284.528C536.084 285.381 536.308 286.085 536.756 286.64C537.204 287.195 537.78 287.472 538.484 287.472Z" fill="black"/>
<path d="M513.347 534V513.584L513.699 511.6H516.931V534H513.347ZM508.483 518.16V514.8C508.973 514.821 509.528 514.683 510.147 514.384C510.787 514.064 511.416 513.648 512.035 513.136C512.653 512.624 513.208 512.101 513.699 511.568L516.003 513.968C515.256 514.757 514.477 515.483 513.667 516.144C512.856 516.805 512.013 517.317 511.139 517.68C510.285 518.043 509.4 518.203 508.483 518.16ZM523.501 534L539.405 511.6H543.117L527.117 534H523.501ZM539.693 534.512C538.69 534.512 537.805 534.277 537.037 533.808C536.269 533.339 535.661 532.688 535.213 531.856C534.786 531.024 534.573 530.085 534.573 529.04C534.573 527.973 534.786 527.035 535.213 526.224C535.64 525.413 536.237 524.773 537.005 524.304C537.794 523.835 538.69 523.6 539.693 523.6C540.696 523.6 541.581 523.835 542.349 524.304C543.117 524.773 543.714 525.413 544.141 526.224C544.589 527.035 544.813 527.973 544.813 529.04C544.813 530.085 544.589 531.024 544.141 531.856C543.714 532.688 543.117 533.339 542.349 533.808C541.581 534.277 540.696 534.512 539.693 534.512ZM539.693 531.984C540.397 531.984 540.973 531.707 541.421 531.152C541.869 530.597 542.093 529.893 542.093 529.04C542.093 528.208 541.869 527.515 541.421 526.96C540.973 526.384 540.397 526.096 539.693 526.096C538.989 526.096 538.402 526.384 537.933 526.96C537.485 527.515 537.261 528.208 537.261 529.04C537.261 529.893 537.485 530.597 537.933 531.152C538.402 531.707 538.989 531.984 539.693 531.984ZM527.021 522C526.04 522 525.154 521.765 524.365 521.296C523.597 520.827 523 520.176 522.573 519.344C522.146 518.512 521.933 517.573 521.933 516.528C521.933 515.461 522.146 514.523 522.573 513.712C523 512.901 523.597 512.261 524.365 511.792C525.154 511.323 526.05 511.088 527.053 511.088C528.056 511.088 528.941 511.323 529.709 511.792C530.477 512.261 531.074 512.901 531.501 513.712C531.928 514.523 532.141 515.461 532.141 516.528C532.141 517.573 531.928 518.512 531.501 519.344C531.074 520.176 530.466 520.827 529.677 521.296C528.909 521.765 528.024 522 527.021 522ZM527.021 519.472C527.746 519.472 528.333 519.195 528.781 518.64C529.229 518.085 529.453 517.381 529.453 516.528C529.453 515.696 529.229 515.003 528.781 514.448C528.333 513.893 527.746 513.616 527.021 513.616C526.317 513.616 525.741 513.893 525.293 514.448C524.845 515.003 524.621 515.696 524.621 516.528C524.621 517.381 524.845 518.085 525.293 518.64C525.741 519.195 526.317 519.472 527.021 519.472Z" fill="black"/>
<path d="M712.908 417.384C711.393 417.384 710.103 417.107 709.036 416.552C707.991 415.976 707.148 415.208 706.508 414.248C705.868 413.267 705.399 412.136 705.1 410.856C704.801 409.555 704.652 408.168 704.652 406.696C704.652 404.904 704.833 403.251 705.196 401.736C705.58 400.221 706.145 398.899 706.892 397.768C707.639 396.637 708.567 395.763 709.676 395.144C710.807 394.525 712.119 394.216 713.612 394.216C714.764 394.216 715.895 394.397 717.004 394.76C718.135 395.101 719.137 395.581 720.012 396.2L718.092 398.888C717.431 398.419 716.705 398.067 715.916 397.832C715.148 397.597 714.433 397.48 713.772 397.48C711.916 397.48 710.476 398.28 709.452 399.88C708.449 401.48 707.991 403.965 708.076 407.336L707.308 406.76C707.799 405.544 708.577 404.573 709.644 403.848C710.711 403.101 711.98 402.728 713.452 402.728C714.881 402.728 716.151 403.059 717.26 403.72C718.369 404.36 719.233 405.245 719.852 406.376C720.471 407.485 720.78 408.755 720.78 410.184C720.78 411.571 720.449 412.808 719.788 413.896C719.148 414.984 718.231 415.837 717.036 416.456C715.863 417.075 714.487 417.384 712.908 417.384ZM712.94 414.216C713.729 414.216 714.433 414.035 715.052 413.672C715.692 413.309 716.193 412.819 716.556 412.2C716.919 411.56 717.1 410.835 717.1 410.024C717.1 409.213 716.919 408.488 716.556 407.848C716.193 407.208 715.692 406.717 715.052 406.376C714.433 406.013 713.729 405.832 712.94 405.832C712.129 405.832 711.404 406.013 710.764 406.376C710.145 406.717 709.655 407.208 709.292 407.848C708.929 408.488 708.748 409.213 708.748 410.024C708.748 410.835 708.929 411.56 709.292 412.2C709.655 412.819 710.145 413.309 710.764 413.672C711.404 414.035 712.129 414.216 712.94 414.216ZM732.351 417.384C730.602 417.384 729.044 416.893 727.679 415.912C726.314 414.909 725.236 413.544 724.447 411.816C723.679 410.067 723.295 408.061 723.295 405.8C723.295 403.539 723.679 401.544 724.447 399.816C725.236 398.067 726.303 396.701 727.647 395.72C729.012 394.717 730.58 394.216 732.351 394.216C734.122 394.216 735.69 394.717 737.055 395.72C738.42 396.701 739.487 398.067 740.255 399.816C741.044 401.544 741.439 403.539 741.439 405.8C741.439 408.061 741.044 410.067 740.255 411.816C739.487 413.544 738.42 414.909 737.055 415.912C735.711 416.893 734.143 417.384 732.351 417.384ZM732.383 414.024C733.428 414.024 734.356 413.672 735.167 412.968C735.999 412.264 736.639 411.293 737.087 410.056C737.556 408.819 737.791 407.4 737.791 405.8C737.791 404.2 737.556 402.781 737.087 401.544C736.639 400.285 735.999 399.304 735.167 398.6C734.356 397.896 733.418 397.544 732.351 397.544C731.284 397.544 730.346 397.896 729.535 398.6C728.724 399.304 728.084 400.275 727.615 401.512C727.167 402.749 726.943 404.179 726.943 405.8C726.943 407.4 727.167 408.819 727.615 410.056C728.084 411.293 728.724 412.264 729.535 412.968C730.367 413.672 731.316 414.024 732.383 414.024ZM745.948 417L761.852 394.6H765.564L749.564 417H745.948ZM762.14 417.512C761.137 417.512 760.252 417.277 759.484 416.808C758.716 416.339 758.108 415.688 757.66 414.856C757.233 414.024 757.02 413.085 757.02 412.04C757.02 410.973 757.233 410.035 757.66 409.224C758.087 408.413 758.684 407.773 759.452 407.304C760.241 406.835 761.137 406.6 762.14 406.6C763.143 406.6 764.028 406.835 764.796 407.304C765.564 407.773 766.161 408.413 766.588 409.224C767.036 410.035 767.26 410.973 767.26 412.04C767.26 413.085 767.036 414.024 766.588 414.856C766.161 415.688 765.564 416.339 764.796 416.808C764.028 417.277 763.143 417.512 762.14 417.512ZM762.14 414.984C762.844 414.984 763.42 414.707 763.868 414.152C764.316 413.597 764.54 412.893 764.54 412.04C764.54 411.208 764.316 410.515 763.868 409.96C763.42 409.384 762.844 409.096 762.14 409.096C761.436 409.096 760.849 409.384 760.38 409.96C759.932 410.515 759.708 411.208 759.708 412.04C759.708 412.893 759.932 413.597 760.38 414.152C760.849 414.707 761.436 414.984 762.14 414.984ZM749.468 405C748.487 405 747.601 404.765 746.812 404.296C746.044 403.827 745.447 403.176 745.02 402.344C744.593 401.512 744.38 400.573 744.38 399.528C744.38 398.461 744.593 397.523 745.02 396.712C745.447 395.901 746.044 395.261 746.812 394.792C747.601 394.323 748.497 394.088 749.5 394.088C750.503 394.088 751.388 394.323 752.156 394.792C752.924 395.261 753.521 395.901 753.948 396.712C754.375 397.523 754.588 398.461 754.588 399.528C754.588 400.573 754.375 401.512 753.948 402.344C753.521 403.176 752.913 403.827 752.124 404.296C751.356 404.765 750.471 405 749.468 405ZM749.468 402.472C750.193 402.472 750.78 402.195 751.228 401.64C751.676 401.085 751.9 400.381 751.9 399.528C751.9 398.696 751.676 398.003 751.228 397.448C750.78 396.893 750.193 396.616 749.468 396.616C748.764 396.616 748.188 396.893 747.74 397.448C747.292 398.003 747.068 398.696 747.068 399.528C747.068 400.381 747.292 401.085 747.74 401.64C748.188 402.195 748.764 402.472 749.468 402.472Z" fill="black"/>
<path d="M713.778 185.384C712.797 185.384 711.794 185.235 710.77 184.936C709.768 184.616 708.84 184.147 707.986 183.528C707.133 182.888 706.482 182.088 706.034 181.128L709.33 179.912C709.885 180.701 710.536 181.277 711.282 181.64C712.029 181.981 712.797 182.152 713.586 182.152C714.845 182.152 715.869 181.779 716.658 181.032C717.448 180.264 717.842 179.251 717.842 177.992C717.842 176.776 717.458 175.773 716.69 174.984C715.922 174.195 714.92 173.8 713.682 173.8C712.957 173.8 712.274 173.96 711.634 174.28C711.016 174.6 710.536 174.984 710.194 175.432L706.834 174.696L708.082 162.6H720.466V165.96H711.282L710.642 172.04C711.218 171.699 711.858 171.432 712.562 171.24C713.288 171.027 714.045 170.92 714.834 170.92C716.114 170.92 717.266 171.219 718.29 171.816C719.314 172.413 720.125 173.235 720.722 174.28C721.32 175.304 721.618 176.488 721.618 177.832C721.618 179.325 721.277 180.637 720.594 181.768C719.933 182.899 719.016 183.784 717.842 184.424C716.669 185.064 715.314 185.384 713.778 185.384ZM732.066 162.216C733.602 162.216 734.893 162.504 735.938 163.08C736.984 163.635 737.826 164.403 738.466 165.384C739.128 166.365 739.597 167.496 739.874 168.776C740.173 170.056 740.322 171.432 740.322 172.904C740.322 174.696 740.13 176.36 739.746 177.896C739.384 179.411 738.829 180.733 738.082 181.864C737.357 182.973 736.429 183.837 735.298 184.456C734.189 185.075 732.877 185.384 731.362 185.384C730.21 185.384 729.08 185.213 727.97 184.872C726.861 184.531 725.858 184.04 724.962 183.4L726.882 180.712C727.544 181.181 728.258 181.533 729.026 181.768C729.816 182.003 730.541 182.12 731.202 182.12C733.058 182.12 734.498 181.32 735.522 179.72C736.546 178.12 737.016 175.635 736.93 172.264L737.698 172.84C737.186 174.056 736.397 175.037 735.33 175.784C734.264 176.509 732.994 176.872 731.522 176.872C730.093 176.872 728.824 176.552 727.714 175.912C726.626 175.251 725.762 174.365 725.122 173.256C724.504 172.125 724.194 170.856 724.194 169.448C724.194 168.04 724.514 166.792 725.154 165.704C725.816 164.616 726.733 163.763 727.906 163.144C729.101 162.525 730.488 162.216 732.066 162.216ZM732.034 165.416C731.245 165.416 730.53 165.597 729.89 165.96C729.272 166.301 728.781 166.792 728.418 167.432C728.077 168.051 727.906 168.765 727.906 169.576C727.906 170.387 728.077 171.112 728.418 171.752C728.781 172.392 729.272 172.893 729.89 173.256C730.53 173.619 731.245 173.8 732.034 173.8C732.866 173.8 733.592 173.619 734.21 173.256C734.85 172.893 735.341 172.392 735.682 171.752C736.045 171.112 736.226 170.387 736.226 169.576C736.226 168.765 736.045 168.051 735.682 167.432C735.341 166.792 734.85 166.301 734.21 165.96C733.592 165.597 732.866 165.416 732.034 165.416ZM744.885 185L760.789 162.6H764.501L748.501 185H744.885ZM761.077 185.512C760.075 185.512 759.189 185.277 758.421 184.808C757.653 184.339 757.045 183.688 756.597 182.856C756.171 182.024 755.957 181.085 755.957 180.04C755.957 178.973 756.171 178.035 756.597 177.224C757.024 176.413 757.621 175.773 758.389 175.304C759.179 174.835 760.075 174.6 761.077 174.6C762.08 174.6 762.965 174.835 763.733 175.304C764.501 175.773 765.099 176.413 765.525 177.224C765.973 178.035 766.197 178.973 766.197 180.04C766.197 181.085 765.973 182.024 765.525 182.856C765.099 183.688 764.501 184.339 763.733 184.808C762.965 185.277 762.08 185.512 761.077 185.512ZM761.077 182.984C761.781 182.984 762.357 182.707 762.805 182.152C763.253 181.597 763.477 180.893 763.477 180.04C763.477 179.208 763.253 178.515 762.805 177.96C762.357 177.384 761.781 177.096 761.077 177.096C760.373 177.096 759.787 177.384 759.317 177.96C758.869 178.515 758.645 179.208 758.645 180.04C758.645 180.893 758.869 181.597 759.317 182.152C759.787 182.707 760.373 182.984 761.077 182.984ZM748.405 173C747.424 173 746.539 172.765 745.749 172.296C744.981 171.827 744.384 171.176 743.957 170.344C743.531 169.512 743.317 168.573 743.317 167.528C743.317 166.461 743.531 165.523 743.957 164.712C744.384 163.901 744.981 163.261 745.749 162.792C746.539 162.323 747.435 162.088 748.437 162.088C749.44 162.088 750.325 162.323 751.093 162.792C751.861 163.261 752.459 163.901 752.885 164.712C753.312 165.523 753.525 166.461 753.525 167.528C753.525 168.573 753.312 169.512 752.885 170.344C752.459 171.176 751.851 171.827 751.061 172.296C750.293 172.765 749.408 173 748.405 173ZM748.405 170.472C749.131 170.472 749.717 170.195 750.165 169.64C750.613 169.085 750.837 168.381 750.837 167.528C750.837 166.696 750.613 166.003 750.165 165.448C749.717 164.893 749.131 164.616 748.405 164.616C747.701 164.616 747.125 164.893 746.677 165.448C746.229 166.003 746.005 166.696 746.005 167.528C746.005 168.381 746.229 169.085 746.677 169.64C747.125 170.195 747.701 170.472 748.405 170.472Z" fill="black"/>
<path d="M714.2 302.384C713.219 302.384 712.216 302.235 711.192 301.936C710.19 301.616 709.262 301.147 708.408 300.528C707.555 299.888 706.904 299.088 706.456 298.128L709.752 296.912C710.307 297.701 710.958 298.277 711.704 298.64C712.451 298.981 713.219 299.152 714.008 299.152C715.267 299.152 716.291 298.779 717.08 298.032C717.87 297.264 718.264 296.251 718.264 294.992C718.264 293.776 717.88 292.773 717.112 291.984C716.344 291.195 715.342 290.8 714.104 290.8C713.379 290.8 712.696 290.96 712.056 291.28C711.438 291.6 710.958 291.984 710.616 292.432L707.256 291.696L708.504 279.6H720.888V282.96H711.704L711.064 289.04C711.64 288.699 712.28 288.432 712.984 288.24C713.71 288.027 714.467 287.92 715.256 287.92C716.536 287.92 717.688 288.219 718.712 288.816C719.736 289.413 720.547 290.235 721.144 291.28C721.742 292.304 722.04 293.488 722.04 294.832C722.04 296.325 721.699 297.637 721.016 298.768C720.355 299.899 719.438 300.784 718.264 301.424C717.091 302.064 715.736 302.384 714.2 302.384ZM726.504 302L736.424 282.448H740.232L730.6 302H726.504ZM724.808 282.992V279.6H740.232V282.448L736.744 282.992H724.808ZM744.464 302L760.368 279.6H764.08L748.08 302H744.464ZM760.656 302.512C759.653 302.512 758.768 302.277 758 301.808C757.232 301.339 756.624 300.688 756.176 299.856C755.749 299.024 755.536 298.085 755.536 297.04C755.536 295.973 755.749 295.035 756.176 294.224C756.602 293.413 757.2 292.773 757.968 292.304C758.757 291.835 759.653 291.6 760.656 291.6C761.658 291.6 762.544 291.835 763.312 292.304C764.08 292.773 764.677 293.413 765.104 294.224C765.552 295.035 765.776 295.973 765.776 297.04C765.776 298.085 765.552 299.024 765.104 299.856C764.677 300.688 764.08 301.339 763.312 301.808C762.544 302.277 761.658 302.512 760.656 302.512ZM760.656 299.984C761.36 299.984 761.936 299.707 762.384 299.152C762.832 298.597 763.056 297.893 763.056 297.04C763.056 296.208 762.832 295.515 762.384 294.96C761.936 294.384 761.36 294.096 760.656 294.096C759.952 294.096 759.365 294.384 758.896 294.96C758.448 295.515 758.224 296.208 758.224 297.04C758.224 297.893 758.448 298.597 758.896 299.152C759.365 299.707 759.952 299.984 760.656 299.984ZM747.984 290C747.002 290 746.117 289.765 745.328 289.296C744.56 288.827 743.962 288.176 743.536 287.344C743.109 286.512 742.896 285.573 742.896 284.528C742.896 283.461 743.109 282.523 743.536 281.712C743.962 280.901 744.56 280.261 745.328 279.792C746.117 279.323 747.013 279.088 748.016 279.088C749.018 279.088 749.904 279.323 750.672 279.792C751.44 280.261 752.037 280.901 752.464 281.712C752.89 282.523 753.104 283.461 753.104 284.528C753.104 285.573 752.89 286.512 752.464 287.344C752.037 288.176 751.429 288.827 750.64 289.296C749.872 289.765 748.986 290 747.984 290ZM747.984 287.472C748.709 287.472 749.296 287.195 749.744 286.64C750.192 286.085 750.416 285.381 750.416 284.528C750.416 283.696 750.192 283.003 749.744 282.448C749.296 281.893 748.709 281.616 747.984 281.616C747.28 281.616 746.704 281.893 746.256 282.448C745.808 283.003 745.584 283.696 745.584 284.528C745.584 285.381 745.808 286.085 746.256 286.64C746.704 287.195 747.28 287.472 747.984 287.472Z" fill="black"/>
<path d="M717.104 534L727.024 514.448H730.832L721.2 534H717.104ZM715.408 514.992V511.6H730.832V514.448L727.344 514.992H715.408ZM735.063 534L750.967 511.6H754.679L738.679 534H735.063ZM751.255 534.512C750.253 534.512 749.367 534.277 748.599 533.808C747.831 533.339 747.223 532.688 746.775 531.856C746.349 531.024 746.135 530.085 746.135 529.04C746.135 527.973 746.349 527.035 746.775 526.224C747.202 525.413 747.799 524.773 748.567 524.304C749.357 523.835 750.253 523.6 751.255 523.6C752.258 523.6 753.143 523.835 753.911 524.304C754.679 524.773 755.277 525.413 755.703 526.224C756.151 527.035 756.375 527.973 756.375 529.04C756.375 530.085 756.151 531.024 755.703 531.856C755.277 532.688 754.679 533.339 753.911 533.808C753.143 534.277 752.258 534.512 751.255 534.512ZM751.255 531.984C751.959 531.984 752.535 531.707 752.983 531.152C753.431 530.597 753.655 529.893 753.655 529.04C753.655 528.208 753.431 527.515 752.983 526.96C752.535 526.384 751.959 526.096 751.255 526.096C750.551 526.096 749.965 526.384 749.495 526.96C749.047 527.515 748.823 528.208 748.823 529.04C748.823 529.893 749.047 530.597 749.495 531.152C749.965 531.707 750.551 531.984 751.255 531.984ZM738.583 522C737.602 522 736.717 521.765 735.927 521.296C735.159 520.827 734.562 520.176 734.135 519.344C733.709 518.512 733.495 517.573 733.495 516.528C733.495 515.461 733.709 514.523 734.135 513.712C734.562 512.901 735.159 512.261 735.927 511.792C736.717 511.323 737.613 511.088 738.615 511.088C739.618 511.088 740.503 511.323 741.271 511.792C742.039 512.261 742.637 512.901 743.063 513.712C743.49 514.523 743.703 515.461 743.703 516.528C743.703 517.573 743.49 518.512 743.063 519.344C742.637 520.176 742.029 520.827 741.239 521.296C740.471 521.765 739.586 522 738.583 522ZM738.583 519.472C739.309 519.472 739.895 519.195 740.343 518.64C740.791 518.085 741.015 517.381 741.015 516.528C741.015 515.696 740.791 515.003 740.343 514.448C739.895 513.893 739.309 513.616 738.583 513.616C737.879 513.616 737.303 513.893 736.855 514.448C736.407 515.003 736.183 515.696 736.183 516.528C736.183 517.381 736.407 518.085 736.855 518.64C737.303 519.195 737.879 519.472 738.583 519.472Z" fill="black"/>
<rect opacity="0.5" width="209" height="116" fill="#FF9500"/>
<rect opacity="0.7" x="209" width="211" height="116" fill="#FF492C"/>
<rect opacity="0.8" x="420" width="211" height="116" fill="#E01E00"/>
<rect opacity="0.76" x="631" width="209" height="116" fill="#FF492C"/>
<path d="M714.153 70.384C713.172 70.384 712.169 70.2347 711.145 69.936C710.143 69.616 709.215 69.1467 708.361 68.528C707.508 67.888 706.857 67.088 706.409 66.128L709.705 64.912C710.26 65.7013 710.911 66.2773 711.657 66.64C712.404 66.9813 713.172 67.152 713.961 67.152C715.22 67.152 716.244 66.7787 717.033 66.032C717.823 65.264 718.217 64.2507 718.217 62.992C718.217 61.776 717.833 60.7733 717.065 59.984C716.297 59.1947 715.295 58.8 714.057 58.8C713.332 58.8 712.649 58.96 712.009 59.28C711.391 59.6 710.911 59.984 710.569 60.432L707.209 59.696L708.457 47.6H720.841V50.96H711.657L711.017 57.04C711.593 56.6987 712.233 56.432 712.937 56.24C713.663 56.0267 714.42 55.92 715.209 55.92C716.489 55.92 717.641 56.2187 718.665 56.816C719.689 57.4133 720.5 58.2347 721.097 59.28C721.695 60.304 721.993 61.488 721.993 62.832C721.993 64.3253 721.652 65.6373 720.969 66.768C720.308 67.8987 719.391 68.784 718.217 69.424C717.044 70.064 715.689 70.384 714.153 70.384ZM732.441 70.384C731.225 70.384 730.116 70.2027 729.113 69.84C728.111 69.4773 727.268 68.9653 726.585 68.304C725.903 67.6427 725.412 66.896 725.113 66.064L728.441 64.816C728.612 65.1147 728.847 65.4453 729.145 65.808C729.444 66.1707 729.839 66.4907 730.329 66.768C730.82 67.024 731.449 67.152 732.217 67.152C733.433 67.152 734.393 66.8107 735.097 66.128C735.823 65.424 736.185 64.5387 736.185 63.472C736.185 62.704 735.983 62.0427 735.577 61.488C735.193 60.9333 734.585 60.5067 733.753 60.208C732.943 59.9093 731.919 59.76 730.681 59.76H729.657V57.136H730.585C731.887 57.136 733.092 57.2853 734.201 57.584C735.332 57.8827 736.324 58.3307 737.177 58.928C738.052 59.504 738.724 60.208 739.193 61.04C739.684 61.872 739.929 62.8107 739.929 63.856C739.929 65.2 739.577 66.3627 738.873 67.344C738.191 68.3253 737.284 69.0827 736.153 69.616C735.023 70.128 733.785 70.384 732.441 70.384ZM729.657 59.184V56.688H730.681C732.324 56.688 733.572 56.4107 734.425 55.856C735.279 55.3013 735.705 54.5227 735.705 53.52C735.705 52.944 735.556 52.432 735.257 51.984C734.98 51.5147 734.575 51.1413 734.041 50.864C733.508 50.5867 732.879 50.448 732.153 50.448C731.684 50.448 731.225 50.5227 730.777 50.672C730.329 50.8213 729.913 51.056 729.529 51.376C729.145 51.696 728.825 52.112 728.569 52.624L725.337 51.44C725.657 50.544 726.169 49.7867 726.873 49.168C727.577 48.528 728.399 48.048 729.337 47.728C730.276 47.3867 731.257 47.216 732.281 47.216C733.647 47.216 734.863 47.472 735.929 47.984C737.017 48.496 737.871 49.2107 738.489 50.128C739.129 51.024 739.449 52.0587 739.449 53.232C739.449 54.2133 739.204 55.0773 738.713 55.824C738.244 56.5707 737.593 57.2 736.761 57.712C735.929 58.2027 734.98 58.576 733.913 58.832C732.868 59.0667 731.748 59.184 730.553 59.184H729.657ZM744.51 70L760.414 47.6H764.126L748.126 70H744.51ZM760.702 70.512C759.7 70.512 758.814 70.2773 758.046 69.808C757.278 69.3387 756.67 68.688 756.222 67.856C755.796 67.024 755.582 66.0853 755.582 65.04C755.582 63.9733 755.796 63.0347 756.222 62.224C756.649 61.4133 757.246 60.7733 758.014 60.304C758.804 59.8347 759.7 59.6 760.702 59.6C761.705 59.6 762.59 59.8347 763.358 60.304C764.126 60.7733 764.724 61.4133 765.15 62.224C765.598 63.0347 765.822 63.9733 765.822 65.04C765.822 66.0853 765.598 67.024 765.15 67.856C764.724 68.688 764.126 69.3387 763.358 69.808C762.59 70.2773 761.705 70.512 760.702 70.512ZM760.702 67.984C761.406 67.984 761.982 67.7067 762.43 67.152C762.878 66.5973 763.102 65.8933 763.102 65.04C763.102 64.208 762.878 63.5147 762.43 62.96C761.982 62.384 761.406 62.096 760.702 62.096C759.998 62.096 759.412 62.384 758.942 62.96C758.494 63.5147 758.27 64.208 758.27 65.04C758.27 65.8933 758.494 66.5973 758.942 67.152C759.412 67.7067 759.998 67.984 760.702 67.984ZM748.03 58C747.049 58 746.164 57.7653 745.374 57.296C744.606 56.8267 744.009 56.176 743.582 55.344C743.156 54.512 742.942 53.5733 742.942 52.528C742.942 51.4613 743.156 50.5227 743.582 49.712C744.009 48.9013 744.606 48.2613 745.374 47.792C746.164 47.3227 747.06 47.088 748.062 47.088C749.065 47.088 749.95 47.3227 750.718 47.792C751.486 48.2613 752.084 48.9013 752.51 49.712C752.937 50.5227 753.15 51.4613 753.15 52.528C753.15 53.5733 752.937 54.512 752.51 55.344C752.084 56.176 751.476 56.8267 750.686 57.296C749.918 57.7653 749.033 58 748.03 58ZM748.03 55.472C748.756 55.472 749.342 55.1947 749.79 54.64C750.238 54.0853 750.462 53.3813 750.462 52.528C750.462 51.696 750.238 51.0027 749.79 50.448C749.342 49.8933 748.756 49.616 748.03 49.616C747.326 49.616 746.75 49.8933 746.302 50.448C745.854 51.0027 745.63 51.696 745.63 52.528C745.63 53.3813 745.854 54.0853 746.302 54.64C746.75 55.1947 747.326 55.472 748.03 55.472Z" fill="black"/>
<path d="M81.7039 70.384C80.4879 70.384 79.3785 70.2027 78.3759 69.84C77.3732 69.4773 76.5305 68.9653 75.8479 68.304C75.1652 67.6427 74.6745 66.896 74.3759 66.064L77.7039 64.816C77.8745 65.1147 78.1092 65.4453 78.4079 65.808C78.7065 66.1707 79.1012 66.4907 79.5919 66.768C80.0825 67.024 80.7119 67.152 81.4799 67.152C82.6959 67.152 83.6559 66.8107 84.3599 66.128C85.0852 65.424 85.4479 64.5387 85.4479 63.472C85.4479 62.704 85.2452 62.0427 84.8399 61.488C84.4559 60.9333 83.8479 60.5067 83.0159 60.208C82.2052 59.9093 81.1812 59.76 79.9439 59.76H78.9199V57.136H79.8479C81.1492 57.136 82.3545 57.2853 83.4639 57.584C84.5945 57.8827 85.5865 58.3307 86.4399 58.928C87.3145 59.504 87.9865 60.208 88.4559 61.04C88.9465 61.872 89.1919 62.8107 89.1919 63.856C89.1919 65.2 88.8399 66.3627 88.1359 67.344C87.4532 68.3253 86.5465 69.0827 85.4159 69.616C84.2852 70.128 83.0479 70.384 81.7039 70.384ZM78.9199 59.184V56.688H79.9439C81.5865 56.688 82.8345 56.4107 83.6879 55.856C84.5412 55.3013 84.9679 54.5227 84.9679 53.52C84.9679 52.944 84.8185 52.432 84.5199 51.984C84.2425 51.5147 83.8372 51.1413 83.3039 50.864C82.7705 50.5867 82.1412 50.448 81.4159 50.448C80.9465 50.448 80.4879 50.5227 80.0399 50.672C79.5919 50.8213 79.1759 51.056 78.7919 51.376C78.4079 51.696 78.0879 52.112 77.8319 52.624L74.5999 51.44C74.9199 50.544 75.4319 49.7867 76.1359 49.168C76.8399 48.528 77.6612 48.048 78.5999 47.728C79.5385 47.3867 80.5199 47.216 81.5439 47.216C82.9092 47.216 84.1252 47.472 85.1919 47.984C86.2799 48.496 87.1332 49.2107 87.7519 50.128C88.3919 51.024 88.7119 52.0587 88.7119 53.232C88.7119 54.2133 88.4665 55.0773 87.9759 55.824C87.5065 56.5707 86.8559 57.2 86.0239 57.712C85.1919 58.2027 84.2425 58.576 83.1759 58.832C82.1305 59.0667 81.0105 59.184 79.8159 59.184H78.9199ZM99.6289 47.216C101.165 47.216 102.456 47.504 103.501 48.08C104.546 48.6347 105.389 49.4027 106.029 50.384C106.69 51.3653 107.16 52.496 107.437 53.776C107.736 55.056 107.885 56.432 107.885 57.904C107.885 59.696 107.693 61.36 107.309 62.896C106.946 64.4107 106.392 65.7333 105.645 66.864C104.92 67.9733 103.992 68.8373 102.861 69.456C101.752 70.0747 100.44 70.384 98.9249 70.384C97.7729 70.384 96.6422 70.2133 95.5329 69.872C94.4235 69.5307 93.4209 69.04 92.5249 68.4L94.4449 65.712C95.1062 66.1813 95.8209 66.5333 96.5889 66.768C97.3782 67.0027 98.1035 67.12 98.7649 67.12C100.621 67.12 102.061 66.32 103.085 64.72C104.109 63.12 104.578 60.6347 104.493 57.264L105.261 57.84C104.749 59.056 103.96 60.0373 102.893 60.784C101.826 61.5093 100.557 61.872 99.0849 61.872C97.6555 61.872 96.3862 61.552 95.2769 60.912C94.1889 60.2507 93.3249 59.3653 92.6849 58.256C92.0662 57.1253 91.7569 55.856 91.7569 54.448C91.7569 53.04 92.0769 51.792 92.7169 50.704C93.3782 49.616 94.2955 48.7627 95.4689 48.144C96.6635 47.5253 98.0502 47.216 99.6289 47.216ZM99.5969 50.416C98.8075 50.416 98.0929 50.5973 97.4529 50.96C96.8342 51.3013 96.3435 51.792 95.9809 52.432C95.6395 53.0507 95.4689 53.7653 95.4689 54.576C95.4689 55.3867 95.6395 56.112 95.9809 56.752C96.3435 57.392 96.8342 57.8933 97.4529 58.256C98.0929 58.6187 98.8075 58.8 99.5969 58.8C100.429 58.8 101.154 58.6187 101.773 58.256C102.413 57.8933 102.904 57.392 103.245 56.752C103.608 56.112 103.789 55.3867 103.789 54.576C103.789 53.7653 103.608 53.0507 103.245 52.432C102.904 51.792 102.413 51.3013 101.773 50.96C101.154 50.5973 100.429 50.416 99.5969 50.416ZM112.448 70L128.352 47.6H132.064L116.064 70H112.448ZM128.64 70.512C127.637 70.512 126.752 70.2773 125.984 69.808C125.216 69.3387 124.608 68.688 124.16 67.856C123.733 67.024 123.52 66.0853 123.52 65.04C123.52 63.9733 123.733 63.0347 124.16 62.224C124.587 61.4133 125.184 60.7733 125.952 60.304C126.741 59.8347 127.637 59.6 128.64 59.6C129.643 59.6 130.528 59.8347 131.296 60.304C132.064 60.7733 132.661 61.4133 133.088 62.224C133.536 63.0347 133.76 63.9733 133.76 65.04C133.76 66.0853 133.536 67.024 133.088 67.856C132.661 68.688 132.064 69.3387 131.296 69.808C130.528 70.2773 129.643 70.512 128.64 70.512ZM128.64 67.984C129.344 67.984 129.92 67.7067 130.368 67.152C130.816 66.5973 131.04 65.8933 131.04 65.04C131.04 64.208 130.816 63.5147 130.368 62.96C129.92 62.384 129.344 62.096 128.64 62.096C127.936 62.096 127.349 62.384 126.88 62.96C126.432 63.5147 126.208 64.208 126.208 65.04C126.208 65.8933 126.432 66.5973 126.88 67.152C127.349 67.7067 127.936 67.984 128.64 67.984ZM115.968 58C114.987 58 114.101 57.7653 113.312 57.296C112.544 56.8267 111.947 56.176 111.52 55.344C111.093 54.512 110.88 53.5733 110.88 52.528C110.88 51.4613 111.093 50.5227 111.52 49.712C111.947 48.9013 112.544 48.2613 113.312 47.792C114.101 47.3227 114.997 47.088 116 47.088C117.003 47.088 117.888 47.3227 118.656 47.792C119.424 48.2613 120.021 48.9013 120.448 49.712C120.875 50.5227 121.088 51.4613 121.088 52.528C121.088 53.5733 120.875 54.512 120.448 55.344C120.021 56.176 119.413 56.8267 118.624 57.296C117.856 57.7653 116.971 58 115.968 58ZM115.968 55.472C116.693 55.472 117.28 55.1947 117.728 54.64C118.176 54.0853 118.4 53.3813 118.4 52.528C118.4 51.696 118.176 51.0027 117.728 50.448C117.28 49.8933 116.693 49.616 115.968 49.616C115.264 49.616 114.688 49.8933 114.24 50.448C113.792 51.0027 113.568 51.696 113.568 52.528C113.568 53.3813 113.792 54.0853 114.24 54.64C114.688 55.1947 115.264 55.472 115.968 55.472Z" fill="black"/>
<path d="M291.153 70.384C290.172 70.384 289.169 70.2347 288.145 69.936C287.143 69.616 286.215 69.1467 285.361 68.528C284.508 67.888 283.857 67.088 283.409 66.128L286.705 64.912C287.26 65.7013 287.911 66.2773 288.657 66.64C289.404 66.9813 290.172 67.152 290.961 67.152C292.22 67.152 293.244 66.7787 294.033 66.032C294.823 65.264 295.217 64.2507 295.217 62.992C295.217 61.776 294.833 60.7733 294.065 59.984C293.297 59.1947 292.295 58.8 291.057 58.8C290.332 58.8 289.649 58.96 289.009 59.28C288.391 59.6 287.911 59.984 287.569 60.432L284.209 59.696L285.457 47.6H297.841V50.96H288.657L288.017 57.04C288.593 56.6987 289.233 56.432 289.937 56.24C290.663 56.0267 291.42 55.92 292.209 55.92C293.489 55.92 294.641 56.2187 295.665 56.816C296.689 57.4133 297.5 58.2347 298.097 59.28C298.695 60.304 298.993 61.488 298.993 62.832C298.993 64.3253 298.652 65.6373 297.969 66.768C297.308 67.8987 296.391 68.784 295.217 69.424C294.044 70.064 292.689 70.384 291.153 70.384ZM310.913 70.384C309.164 70.384 307.607 69.8933 306.241 68.912C304.876 67.9093 303.799 66.544 303.009 64.816C302.241 63.0667 301.857 61.0613 301.857 58.8C301.857 56.5387 302.241 54.544 303.009 52.816C303.799 51.0667 304.865 49.7013 306.209 48.72C307.575 47.7173 309.143 47.216 310.913 47.216C312.684 47.216 314.252 47.7173 315.617 48.72C316.983 49.7013 318.049 51.0667 318.817 52.816C319.607 54.544 320.001 56.5387 320.001 58.8C320.001 61.0613 319.607 63.0667 318.817 64.816C318.049 66.544 316.983 67.9093 315.617 68.912C314.273 69.8933 312.705 70.384 310.913 70.384ZM310.945 67.024C311.991 67.024 312.919 66.672 313.729 65.968C314.561 65.264 315.201 64.2933 315.649 63.056C316.119 61.8187 316.353 60.4 316.353 58.8C316.353 57.2 316.119 55.7813 315.649 54.544C315.201 53.2853 314.561 52.304 313.729 51.6C312.919 50.896 311.98 50.544 310.913 50.544C309.847 50.544 308.908 50.896 308.097 51.6C307.287 52.304 306.647 53.2747 306.177 54.512C305.729 55.7493 305.505 57.1787 305.505 58.8C305.505 60.4 305.729 61.8187 306.177 63.056C306.647 64.2933 307.287 65.264 308.097 65.968C308.929 66.672 309.879 67.024 310.945 67.024ZM324.51 70L340.414 47.6H344.126L328.126 70H324.51ZM340.702 70.512C339.7 70.512 338.814 70.2773 338.046 69.808C337.278 69.3387 336.67 68.688 336.222 67.856C335.796 67.024 335.582 66.0853 335.582 65.04C335.582 63.9733 335.796 63.0347 336.222 62.224C336.649 61.4133 337.246 60.7733 338.014 60.304C338.804 59.8347 339.7 59.6 340.702 59.6C341.705 59.6 342.59 59.8347 343.358 60.304C344.126 60.7733 344.724 61.4133 345.15 62.224C345.598 63.0347 345.822 63.9733 345.822 65.04C345.822 66.0853 345.598 67.024 345.15 67.856C344.724 68.688 344.126 69.3387 343.358 69.808C342.59 70.2773 341.705 70.512 340.702 70.512ZM340.702 67.984C341.406 67.984 341.982 67.7067 342.43 67.152C342.878 66.5973 343.102 65.8933 343.102 65.04C343.102 64.208 342.878 63.5147 342.43 62.96C341.982 62.384 341.406 62.096 340.702 62.096C339.998 62.096 339.412 62.384 338.942 62.96C338.494 63.5147 338.27 64.208 338.27 65.04C338.27 65.8933 338.494 66.5973 338.942 67.152C339.412 67.7067 339.998 67.984 340.702 67.984ZM328.03 58C327.049 58 326.164 57.7653 325.374 57.296C324.606 56.8267 324.009 56.176 323.582 55.344C323.156 54.512 322.942 53.5733 322.942 52.528C322.942 51.4613 323.156 50.5227 323.582 49.712C324.009 48.9013 324.606 48.2613 325.374 47.792C326.164 47.3227 327.06 47.088 328.062 47.088C329.065 47.088 329.95 47.3227 330.718 47.792C331.486 48.2613 332.084 48.9013 332.51 49.712C332.937 50.5227 333.15 51.4613 333.15 52.528C333.15 53.5733 332.937 54.512 332.51 55.344C332.084 56.176 331.476 56.8267 330.686 57.296C329.918 57.7653 329.033 58 328.03 58ZM328.03 55.472C328.756 55.472 329.342 55.1947 329.79 54.64C330.238 54.0853 330.462 53.3813 330.462 52.528C330.462 51.696 330.238 51.0027 329.79 50.448C329.342 49.8933 328.756 49.616 328.03 49.616C327.326 49.616 326.75 49.8933 326.302 50.448C325.854 51.0027 325.63 51.696 325.63 52.528C325.63 53.3813 325.854 54.0853 326.302 54.64C326.75 55.1947 327.326 55.472 328.03 55.472Z" fill="black"/>
<path d="M503.408 70.384C501.893 70.384 500.603 70.1067 499.536 69.552C498.491 68.976 497.648 68.208 497.008 67.248C496.368 66.2667 495.899 65.136 495.6 63.856C495.301 62.5547 495.152 61.168 495.152 59.696C495.152 57.904 495.333 56.2507 495.696 54.736C496.08 53.2213 496.645 51.8987 497.392 50.768C498.139 49.6373 499.067 48.7627 500.176 48.144C501.307 47.5253 502.619 47.216 504.112 47.216C505.264 47.216 506.395 47.3973 507.504 47.76C508.635 48.1013 509.637 48.5813 510.512 49.2L508.592 51.888C507.931 51.4187 507.205 51.0667 506.416 50.832C505.648 50.5973 504.933 50.48 504.272 50.48C502.416 50.48 500.976 51.28 499.952 52.88C498.949 54.48 498.491 56.9653 498.576 60.336L497.808 59.76C498.299 58.544 499.077 57.5733 500.144 56.848C501.211 56.1013 502.48 55.728 503.952 55.728C505.381 55.728 506.651 56.0587 507.76 56.72C508.869 57.36 509.733 58.2453 510.352 59.376C510.971 60.4853 511.28 61.7547 511.28 63.184C511.28 64.5707 510.949 65.808 510.288 66.896C509.648 67.984 508.731 68.8373 507.536 69.456C506.363 70.0747 504.987 70.384 503.408 70.384ZM503.44 67.216C504.229 67.216 504.933 67.0347 505.552 66.672C506.192 66.3093 506.693 65.8187 507.056 65.2C507.419 64.56 507.6 63.8347 507.6 63.024C507.6 62.2133 507.419 61.488 507.056 60.848C506.693 60.208 506.192 59.7173 505.552 59.376C504.933 59.0133 504.229 58.832 503.44 58.832C502.629 58.832 501.904 59.0133 501.264 59.376C500.645 59.7173 500.155 60.208 499.792 60.848C499.429 61.488 499.248 62.2133 499.248 63.024C499.248 63.8347 499.429 64.56 499.792 65.2C500.155 65.8187 500.645 66.3093 501.264 66.672C501.904 67.0347 502.629 67.216 503.44 67.216ZM522.851 70.384C521.102 70.384 519.544 69.8933 518.179 68.912C516.814 67.9093 515.736 66.544 514.947 64.816C514.179 63.0667 513.795 61.0613 513.795 58.8C513.795 56.5387 514.179 54.544 514.947 52.816C515.736 51.0667 516.803 49.7013 518.147 48.72C519.512 47.7173 521.08 47.216 522.851 47.216C524.622 47.216 526.19 47.7173 527.555 48.72C528.92 49.7013 529.987 51.0667 530.755 52.816C531.544 54.544 531.939 56.5387 531.939 58.8C531.939 61.0613 531.544 63.0667 530.755 64.816C529.987 66.544 528.92 67.9093 527.555 68.912C526.211 69.8933 524.643 70.384 522.851 70.384ZM522.883 67.024C523.928 67.024 524.856 66.672 525.667 65.968C526.499 65.264 527.139 64.2933 527.587 63.056C528.056 61.8187 528.291 60.4 528.291 58.8C528.291 57.2 528.056 55.7813 527.587 54.544C527.139 53.2853 526.499 52.304 525.667 51.6C524.856 50.896 523.918 50.544 522.851 50.544C521.784 50.544 520.846 50.896 520.035 51.6C519.224 52.304 518.584 53.2747 518.115 54.512C517.667 55.7493 517.443 57.1787 517.443 58.8C517.443 60.4 517.667 61.8187 518.115 63.056C518.584 64.2933 519.224 65.264 520.035 65.968C520.867 66.672 521.816 67.024 522.883 67.024ZM536.448 70L552.352 47.6H556.064L540.064 70H536.448ZM552.64 70.512C551.637 70.512 550.752 70.2773 549.984 69.808C549.216 69.3387 548.608 68.688 548.16 67.856C547.733 67.024 547.52 66.0853 547.52 65.04C547.52 63.9733 547.733 63.0347 548.16 62.224C548.587 61.4133 549.184 60.7733 549.952 60.304C550.741 59.8347 551.637 59.6 552.64 59.6C553.643 59.6 554.528 59.8347 555.296 60.304C556.064 60.7733 556.661 61.4133 557.088 62.224C557.536 63.0347 557.76 63.9733 557.76 65.04C557.76 66.0853 557.536 67.024 557.088 67.856C556.661 68.688 556.064 69.3387 555.296 69.808C554.528 70.2773 553.643 70.512 552.64 70.512ZM552.64 67.984C553.344 67.984 553.92 67.7067 554.368 67.152C554.816 66.5973 555.04 65.8933 555.04 65.04C555.04 64.208 554.816 63.5147 554.368 62.96C553.92 62.384 553.344 62.096 552.64 62.096C551.936 62.096 551.349 62.384 550.88 62.96C550.432 63.5147 550.208 64.208 550.208 65.04C550.208 65.8933 550.432 66.5973 550.88 67.152C551.349 67.7067 551.936 67.984 552.64 67.984ZM539.968 58C538.987 58 538.101 57.7653 537.312 57.296C536.544 56.8267 535.947 56.176 535.52 55.344C535.093 54.512 534.88 53.5733 534.88 52.528C534.88 51.4613 535.093 50.5227 535.52 49.712C535.947 48.9013 536.544 48.2613 537.312 47.792C538.101 47.3227 538.997 47.088 540 47.088C541.003 47.088 541.888 47.3227 542.656 47.792C543.424 48.2613 544.021 48.9013 544.448 49.712C544.875 50.5227 545.088 51.4613 545.088 52.528C545.088 53.5733 544.875 54.512 544.448 55.344C544.021 56.176 543.413 56.8267 542.624 57.296C541.856 57.7653 540.971 58 539.968 58ZM539.968 55.472C540.693 55.472 541.28 55.1947 541.728 54.64C542.176 54.0853 542.4 53.3813 542.4 52.528C542.4 51.696 542.176 51.0027 541.728 50.448C541.28 49.8933 540.693 49.616 539.968 49.616C539.264 49.616 538.688 49.8933 538.24 50.448C537.792 51.0027 537.568 51.696 537.568 52.528C537.568 53.3813 537.792 54.0853 538.24 54.64C538.688 55.1947 539.264 55.472 539.968 55.472Z" fill="black"/>
</svg>
